SplineFontDB: 3.2
FontName: Samaano-Bold
FullName: Samaano
FamilyName: Samaano
Weight: Untracondensed Black
Copyright: Copyright 2024, Samaano Font Authors (https://github.com/mitradranirban/samaano-fonts)
UComments: "2024-8-27: Created with FontForge (http://fontforge.org)"
Version: 0.2
StyleMapFamilyName: Samaano Bold
ItalicAngle: 0
UnderlinePosition: -204
UnderlineWidth: 102
Ascent: 1638
Descent: 410
InvalidEm: 0
UFOAscent: 1638
UFODescent: -410
LayerCount: 2
Layer: 0 0 "Back" 1
Layer: 1 0 "public.default" 0 "glyphs"
StyleMap: 0x0020
FSType: 0
OS2Version: 0
OS2_WeightWidthSlopeOnly: 0
OS2_UseTypoMetrics: 0
CreationTime: 1725521133
ModificationTime: 1725521133
PfmFamily: 16
TTFWeight: 900
TTFWidth: 1
LineGap: 0
VLineGap: 0
Panose: 2 0 8 9 2 2 2 2 4 4
OS2TypoAscent: 2457
OS2TypoAOffset: 0
OS2TypoDescent: -615
OS2TypoDOffset: 0
OS2TypoLinegap: 0
OS2WinAscent: 2457
OS2WinAOffset: 0
OS2WinDescent: 615
OS2WinDOffset: 0
HheadAscent: 2457
HheadAOffset: 0
HheadDescent: -615
HheadDOffset: 0
OS2CapHeight: 1548
OS2XHeight: 1024
OS2FamilyClass: 1031
OS2Vendor: 'anir'
DEI: 91125
LangName: 1033 "Copyright 2024, Samaano Font Authors (https://github.com/mitradranirban/samaano-fonts)" "" "" "" "" "Version 0.002" "" "" "" "Dr Anirban Mitra" "A Monspace Variable Font Family in Latin and Devanagari created using rectangular components only" "" "https://github.com/mitradranirban" "Copyright 2024, Samaano Font Authors (https://github.com/mitradranirban/samaano-fonts)+AAoA +AAoA-This Font Software is licensed under the SIL Open Font License, Version 1.1.+AAoA-This license is available with a FAQ at: http://scripts.sil.org/OFL+AAoACgAA" "http://scripts.sil.org/OFL"
PickledDataWithLists: "(dp0
."
Encoding: UnicodeBmp
UnicodeInterp: none
NameList: AGL For New Fonts
DisplaySize: -128
AntiAlias: 1
FitToEm: 0
WinInfo: 2320 10 4
Grid
-1024 1551.8 m 0
 3072 1551.8 l 1024
1866 935.2 m 0
 -2230 935.2 l 1024
EndSplineSet
BeginChars: 65536 134

StartChar: .notdef
Encoding: 0 0 0
GlifName: _notdef
Width: 1024
VWidth: 0
Flags: W
LayerCount: 2
Fore
SplineSet
100 0 m 257
 100 64 l 257
 100 1632 l 257
 1098 1640 l 257
 1100 0 l 257
 1030 0 l 257
 170 0 l 257
 100 0 l 257
170 64 m 257
 567 827 l 257
 174 1546 l 257
 170 64 l 257
266 64 m 257
 946 64 l 257
 605 750 l 257
 266 64 l 257
294 1548 m 257
 607 909 l 257
 925 1558 l 257
 294 1548 l 257
645 832 m 257
 1029 64 l 257
 1021 1559 l 257
 645 832 l 257
EndSplineSet
EndChar

StartChar: A
Encoding: 65 65 1
GlifName: A_
Width: 1024
VWidth: 0
GlyphClass: 2
Flags: W
LayerCount: 2
Fore
SplineSet
128 1 m 257
 325 0 l 257
 324 1548 l 257
 125 1548 l 257
 128 1 l 257
182 1337 m 257
 851 1332 l 257
 847 1548 l 257
 186 1548 l 257
 182 1337 l 257
204 1025 m 257
 202 840 l 257
 835 849 l 257
 835 1025 l 257
 204 1025 l 257
724 0 m 257
 924 0 l 257
 922 1548 l 257
 722 1548 l 257
 724 0 l 257
EndSplineSet
Guideline: "WIN-ASCENT" "" 0 2457 0 0 0
Guideline: "X_HEIGHT" "" 0 1024 0 0 0
Guideline: "CAPS_HEIFGHT" "" 0 1548 0 0 0
EndChar

StartChar: B
Encoding: 66 66 2
GlifName: B_
Width: 1024
VWidth: 0
GlyphClass: 2
Flags: W
LayerCount: 2
Fore
SplineSet
140 2 m 257
 324 1 l 257
 318 1533 l 257
 110 1534 l 257
 140 2 l 257
432 1331 m 257
 950 989 l 257
 947 1215 l 257
 434 1536 l 257
 432 1331 l 257
435 820 m 257
 953 991 l 257
 948 1215 l 257
 433 1020 l 257
 435 820 l 257
375 201 m 257
 375 1 l 257
 913 364 l 257
 929 588 l 257
 375 201 l 257
439 567 m 257
 913 364 l 257
 929 586 l 257
 442 766 l 257
 439 567 l 257
271 1020 m 257
 272 820 l 257
 435 820 l 257
 433 1021 l 257
 271 1020 l 257
270 766 m 257
 269 567 l 257
 441 567 l 257
 442 766 l 257
 270 766 l 257
208 200 m 257
 208 1 l 257
 375 1 l 257
 375 200 l 257
 208 200 l 257
270 1535 m 257
 269 1331 l 257
 432 1331 l 257
 433 1535 l 257
 270 1535 l 257
EndSplineSet
EndChar

StartChar: C
Encoding: 67 67 3
GlifName: C_
Width: 1024
VWidth: 0
GlyphClass: 2
Flags: W
LayerCount: 2
Fore
SplineSet
158 1533 m 257
 358 1533 l 257
 362 3 l 257
 162 3 l 257
 158 1533 l 257
257 1533 m 257
 1040 1541 l 257
 1042 1338 l 257
 257 1335 l 257
 257 1533 l 257
243 209 m 257
 1038 199 l 257
 1041 -3 l 257
 243 3 l 257
 243 209 l 257
EndSplineSet
EndChar

StartChar: D
Encoding: 68 68 4
GlifName: D_
Width: 1024
VWidth: 0
GlyphClass: 2
Flags: W
LayerCount: 2
Fore
SplineSet
107 1547 m 257
 142 -1 l 257
 342 0 l 257
 309 1548 l 257
 107 1547 l 257
433 1550 m 257
 434 1350 l 257
 918 767 l 257
 916 1019 l 257
 433 1550 l 257
441 201 m 257
 442 1 l 257
 915 769 l 257
 913 1025 l 257
 441 201 l 257
271 1548 m 257
 271 1349 l 257
 434 1349 l 257
 433 1549 l 257
 271 1548 l 257
279 199 m 257
 279 0 l 257
 442 0 l 257
 441 200 l 257
 279 199 l 257
EndSplineSet
EndChar

StartChar: E
Encoding: 69 69 5
GlifName: E_
Width: 1024
VWidth: 0
GlyphClass: 2
Flags: W
LayerCount: 2
Fore
SplineSet
103 1537 m 257
 112 3 l 257
 319 3 l 257
 303 1535 l 257
 103 1537 l 257
181 1536 m 257
 188 1338 l 257
 902 1333 l 257
 900 1536 l 257
 181 1536 l 257
170 203 m 257
 171 5 l 257
 920 1 l 257
 916 203 l 257
 170 203 l 257
170 888 m 257
 170 688 l 257
 669 688 l 257
 669 888 l 257
 170 888 l 257
EndSplineSet
EndChar

StartChar: F
Encoding: 70 70 6
GlifName: F_
Width: 1024
VWidth: 0
GlyphClass: 2
Flags: W
LayerCount: 2
Fore
SplineSet
141 1548 m 257
 150 3 l 257
 356 3 l 257
 341 1547 l 257
 141 1548 l 257
243 1548 m 257
 243 1351 l 257
 883 1347 l 257
 877 1548 l 257
 243 1548 l 257
231 880 m 257
 232 683 l 257
 789 672 l 257
 780 875 l 257
 231 880 l 257
EndSplineSet
EndChar

StartChar: G
Encoding: 71 71 7
GlifName: G_
Width: 1024
VWidth: 0
GlyphClass: 2
Flags: W
LayerCount: 2
Fore
SplineSet
110 1547 m 257
 110 0 l 257
 312 0 l 257
 312 1547 l 257
 110 1547 l 257
168 1547 m 257
 168 1347 l 257
 868 1347 l 257
 868 1547 l 257
 168 1547 l 257
141 202 m 257
 141 0 l 257
 904 0 l 257
 904 202 l 257
 141 202 l 257
705 561 m 257
 705 18 l 257
 904 18 l 257
 904 561 l 257
 705 561 l 257
EndSplineSet
EndChar

StartChar: H
Encoding: 72 72 8
GlifName: H_
Width: 1024
VWidth: 0
GlyphClass: 2
Flags: W
LayerCount: 2
Fore
SplineSet
89 1540 m 257
 89 1 l 257
 289 1 l 257
 289 1540 l 257
 89 1540 l 257
675 1540 m 257
 675 1 l 257
 885 1 l 257
 885 1540 l 257
 675 1540 l 257
209 1020 m 257
 209 818 l 257
 755 818 l 257
 755 1020 l 257
 209 1020 l 257
EndSplineSet
EndChar

StartChar: I
Encoding: 73 73 9
GlifName: I_
Width: 1024
VWidth: 0
GlyphClass: 2
Flags: W
LayerCount: 2
Fore
SplineSet
144 1537 m 257
 144 1335 l 257
 845 1335 l 257
 845 1537 l 257
 144 1537 l 257
377 1468 m 257
 377 84 l 257
 577 84 l 257
 577 1468 l 257
 377 1468 l 257
124 204 m 257
 124 6 l 257
 880 6 l 257
 880 204 l 257
 124 204 l 257
EndSplineSet
EndChar

StartChar: J
Encoding: 74 74 10
GlifName: J_
Width: 1024
VWidth: 0
GlyphClass: 2
Flags: W
LayerCount: 2
Fore
SplineSet
700 1527 m 257
 700 1 l 257
 900 1 l 257
 900 1527 l 257
 700 1527 l 257
126 208 m 257
 126 0 l 257
 741 0 l 257
 741 208 l 257
 126 208 l 257
125 503 m 257
 125 54 l 257
 323 52 l 257
 323 503 l 257
 125 503 l 257
EndSplineSet
EndChar

StartChar: K
Encoding: 75 75 11
GlifName: K_
Width: 1024
VWidth: 0
GlyphClass: 2
Flags: W
LayerCount: 2
Fore
SplineSet
118 1535 m 257
 118 5 l 257
 319 5 l 257
 319 1535 l 257
 118 1535 l 257
163 999 m 257
 282 835 l 257
 939 1529 l 257
 672 1536 l 257
 163 999 l 257
293 798 m 257
 156 643 l 257
 711 -1 l 257
 992 0 l 257
 293 798 l 257
EndSplineSet
EndChar

StartChar: L
Encoding: 76 76 12
GlifName: L_
Width: 1024
VWidth: 0
GlyphClass: 2
Flags: W
LayerCount: 2
Fore
SplineSet
53 1542 m 257
 53 3 l 257
 251 3 l 257
 251 1542 l 257
 53 1542 l 257
162 202 m 257
 167 3 l 257
 893 3 l 257
 888 202 l 257
 162 202 l 257
EndSplineSet
EndChar

StartChar: M
Encoding: 77 77 13
GlifName: M_
Width: 1024
VWidth: 0
GlyphClass: 2
Flags: W
LayerCount: 2
Fore
SplineSet
101 1546 m 257
 101 2 l 257
 304 2 l 257
 304 1546 l 257
 101 1546 l 257
722 1541 m 257
 722 -3 l 257
 924 -3 l 257
 924 1541 l 257
 722 1541 l 257
138 1429 m 257
 428 1026 l 257
 616 1031 l 257
 280 1546 l 257
 138 1429 l 257
749 1541 m 257
 427 1027 l 257
 614 1025 l 257
 915 1488 l 257
 749 1541 l 257
EndSplineSet
EndChar

StartChar: N
Encoding: 78 78 14
GlifName: N_
Width: 1024
VWidth: 0
GlyphClass: 2
Flags: W
LayerCount: 2
Fore
SplineSet
95 1549 m 257
 101 2 l 257
 305 2 l 257
 300 1548 l 257
 95 1549 l 257
722 1548 m 257
 722 0 l 257
 925 1 l 257
 924 1548 l 257
 722 1548 l 257
96 1550 m 257
 723 -1 l 257
 926 -1 l 257
 301 1548 l 257
 96 1550 l 257
EndSplineSet
EndChar

StartChar: O
Encoding: 79 79 15
GlifName: O_
Width: 1024
VWidth: 0
GlyphClass: 2
Flags: W
LayerCount: 2
Fore
SplineSet
110 1540 m 257
 110 0 l 257
 311 0 l 257
 311 1540 l 257
 110 1540 l 257
707 1537 m 257
 707 0 l 257
 910 0 l 257
 910 1537 l 257
 707 1537 l 257
174 1538 m 257
 174 1337 l 257
 817 1337 l 257
 817 1538 l 257
 174 1538 l 257
150 204 m 257
 150 0 l 257
 823 0 l 257
 823 204 l 257
 150 204 l 257
EndSplineSet
EndChar

StartChar: P
Encoding: 80 80 16
GlifName: P_
Width: 1024
VWidth: 0
GlyphClass: 2
Flags: W
LayerCount: 2
Fore
SplineSet
112 1545 m 257
 112 9 l 257
 302 9 l 257
 302 1545 l 257
 112 1545 l 257
191 1545 m 257
 190 1346 l 257
 847 1346 l 257
 847 1545 l 257
 191 1545 l 257
667 1545 m 257
 667 881 l 257
 867 881 l 257
 867 1545 l 257
 667 1545 l 257
175 1068 m 257
 175 868 l 257
 862 868 l 257
 862 1068 l 257
 175 1068 l 257
EndSplineSet
EndChar

StartChar: Q
Encoding: 81 81 17
GlifName: Q_
Width: 1024
VWidth: 0
GlyphClass: 2
Flags: W
LayerCount: 2
Fore
SplineSet
110 1540 m 257
 110 5 l 257
 309 5 l 257
 309 1540 l 257
 110 1540 l 257
709 1537 m 257
 709 -2 l 257
 910 -2 l 257
 910 1537 l 257
 709 1537 l 257
174 1538 m 257
 174 1337 l 257
 817 1337 l 257
 817 1538 l 257
 174 1538 l 257
150 205 m 257
 150 3 l 257
 823 3 l 257
 823 205 l 257
 150 205 l 257
558 21 m 257
 744 -285 l 257
 935 -169 l 257
 749 137 l 257
 558 21 l 257
EndSplineSet
EndChar

StartChar: R
Encoding: 82 82 18
GlifName: R_
Width: 1024
VWidth: 0
GlyphClass: 2
Flags: W
LayerCount: 2
Fore
SplineSet
112 1535 m 257
 112 -1 l 257
 313 -1 l 257
 313 1535 l 257
 112 1535 l 257
191 1536 m 257
 191 1335 l 257
 847 1335 l 257
 847 1536 l 257
 191 1536 l 257
674 1536 m 257
 674 872 l 257
 874 872 l 257
 874 1536 l 257
 674 1536 l 257
175 1079 m 257
 175 868 l 257
 862 868 l 257
 862 1079 l 257
 175 1079 l 257
315 875 m 257
 716 1 l 257
 956 -4 l 257
 514 892 l 257
 315 875 l 257
EndSplineSet
EndChar

StartChar: S
Encoding: 83 83 19
GlifName: S_
Width: 1024
VWidth: 0
GlyphClass: 2
Flags: W
LayerCount: 2
Fore
SplineSet
146 1539 m 257
 146 1336 l 257
 744 1336 l 257
 744 1539 l 257
 146 1539 l 257
146 1542 m 257
 146 1028 l 257
 348 1028 l 257
 348 1542 l 257
 146 1542 l 257
174 199 m 257
 174 0 l 257
 882 0 l 257
 882 199 l 257
 174 199 l 257
717 1 m 257
 918 1 l 257
 918 355 l 257
 717 355 l 257
 717 1 l 257
146 1028 m 257
 717 355 l 257
 918 355 l 257
 348 1028 l 257
 146 1028 l 257
EndSplineSet
EndChar

StartChar: T
Encoding: 84 84 20
GlifName: T_
Width: 1024
VWidth: 0
GlyphClass: 2
Flags: W
LayerCount: 2
Fore
SplineSet
125 1549 m 257
 125 1348 l 257
 899 1348 l 257
 899 1549 l 257
 125 1549 l 257
412 1436 m 257
 412 6 l 257
 612 6 l 257
 612 1436 l 257
 412 1436 l 257
EndSplineSet
EndChar

StartChar: U
Encoding: 85 85 21
GlifName: U_
Width: 1024
VWidth: 0
GlyphClass: 2
Flags: W
LayerCount: 2
Fore
SplineSet
157 1536 m 257
 157 0 l 257
 357 0 l 257
 357 1536 l 257
 157 1536 l 257
668 1535 m 257
 668 0 l 257
 868 0 l 257
 867 1535 l 257
 668 1535 l 257
204 200 m 257
 205 0 l 257
 824 0 l 257
 824 200 l 257
 204 200 l 257
EndSplineSet
EndChar

StartChar: V
Encoding: 86 86 22
GlifName: V_
Width: 1024
VWidth: 0
GlyphClass: 2
Flags: W
LayerCount: 2
Fore
SplineSet
106 1548 m 257
 366 -5 l 257
 587 0 l 257
 307 1548 l 257
 106 1548 l 257
716 1548 m 257
 491 1 l 257
 714 0 l 257
 917 1548 l 257
 716 1548 l 257
EndSplineSet
EndChar

StartChar: W
Encoding: 87 87 23
GlifName: W_
Width: 1024
VWidth: 0
GlyphClass: 2
Flags: W
LayerCount: 2
Fore
SplineSet
104 1546 m 257
 105 1 l 257
 306 0 l 257
 305 1546 l 257
 104 1546 l 257
721 1545 m 257
 721 12 l 257
 922 12 l 257
 922 1545 l 257
 721 1545 l 257
413 1028 m 257
 414 1 l 257
 613 1 l 257
 614 1028 l 257
 413 1028 l 257
103 201 m 257
 105 1 l 257
 922 0 l 257
 922 201 l 257
 103 201 l 257
EndSplineSet
EndChar

StartChar: X
Encoding: 88 88 24
GlifName: X_
Width: 1024
VWidth: 0
GlyphClass: 2
Flags: W
LayerCount: 2
Fore
SplineSet
91 1545 m 257
 290 1548 l 257
 933 -2 l 257
 733 0 l 257
 91 1545 l 257
94 3 m 257
 726 1546 l 257
 925 1544 l 257
 295 6 l 257
 94 3 l 257
EndSplineSet
EndChar

StartChar: Y
Encoding: 89 89 25
GlifName: Y_
Width: 1024
VWidth: 0
GlyphClass: 2
Flags: W
LayerCount: 2
Fore
SplineSet
411 896 m 257
 416 -2 l 257
 618 -1 l 257
 613 897 l 257
 411 896 l 257
160 1547 m 257
 160 859 l 257
 360 859 l 257
 360 1547 l 257
 160 1547 l 257
665 1548 m 257
 663 859 l 257
 864 859 l 257
 864 1547 l 257
 665 1548 l 257
228 1019 m 257
 228 859 l 257
 774 859 l 257
 774 1019 l 257
 228 1019 l 257
EndSplineSet
EndChar

StartChar: Z
Encoding: 90 90 26
GlifName: Z_
Width: 1024
VWidth: 0
GlyphClass: 2
Flags: W
LayerCount: 2
Fore
SplineSet
97 1546 m 257
 98 1336 l 257
 926 1336 l 257
 931 1548 l 257
 97 1546 l 257
98 212 m 257
 98 0 l 257
 926 0 l 257
 926 212 l 257
 98 212 l 257
670 1336 m 257
 98 212 l 257
 305 211 l 257
 915 1335 l 257
 670 1336 l 257
EndSplineSet
EndChar

StartChar: a
Encoding: 97 97 27
GlifName: a
Width: 1024
VWidth: 0
GlyphClass: 2
Flags: W
LayerCount: 2
Fore
SplineSet
168 1025 m 257
 168 824 l 257
 772 824 l 257
 774 1024 l 257
 168 1025 l 257
661 1025 m 257
 658 -1 l 257
 860 1 l 257
 855 1025 l 257
 661 1025 l 257
172 602 m 257
 174 401 l 257
 796 400 l 257
 796 599 l 257
 172 602 l 257
172 575 m 257
 172 -2 l 257
 373 -2 l 257
 373 575 l 257
 172 575 l 257
170 200 m 257
 172 -2 l 257
 860 1 l 257
 860 201 l 257
 170 200 l 257
EndSplineSet
EndChar

StartChar: acutecomb
Encoding: 769 769 28
GlifName: acutecomb
Width: 1024
VWidth: 0
GlyphClass: 2
Flags: W
LayerCount: 2
Fore
SplineSet
551 980 m 257
 421 726 l 257
 509 680 l 257
 640 935 l 257
 551 980 l 257
EndSplineSet
PickledDataWithLists: "(dp0
."
EndChar

StartChar: ampersand
Encoding: 38 38 29
GlifName: ampersand
Width: 1024
VWidth: 0
GlyphClass: 2
Flags: W
LayerCount: 2
Fore
SplineSet
277 1536 m 257
 724 12 l 257
 871 56 l 257
 439 1534 l 257
 277 1536 l 257
820 1401 m 257
 820 1536 l 257
 355 1536 l 257
 355 1401 l 257
 820 1401 l 257
660 1446 m 257
 660 917 l 257
 820 917 l 257
 820 1446 l 257
 660 1446 l 257
124 1045 m 257
 124 843 l 257
 820 843 l 257
 820 1045 l 257
 124 1045 l 257
124 1045 m 257
 124 24 l 257
 334 24 l 257
 334 1045 l 257
 124 1045 l 257
124 190 m 257
 124 6 l 257
 933 6 l 257
 933 190 l 257
 124 190 l 257
EndSplineSet
PickledDataWithLists: "(dp0
."
EndChar

StartChar: asciicircum
Encoding: 94 94 30
GlifName: asciicircum
Width: 1024
VWidth: 0
GlyphClass: 2
Flags: W
LayerCount: 2
Fore
SplineSet
607 1023 m 257
 458 1025 l 257
 193 407 l 257
 343 345 l 257
 607 1023 l 257
464 904 m 257
 720 343 l 257
 870 400 l 257
 607 1023 l 257
 464 904 l 257
EndSplineSet
PickledDataWithLists: "(dp0
."
EndChar

StartChar: asciitilde
Encoding: 126 126 31
GlifName: asciitilde
Width: 1024
VWidth: 0
GlyphClass: 2
Flags: W
LayerCount: 2
Fore
SplineSet
330 815 m 257
 330 716 l 257
 680 655 l 257
 680 754 l 257
 330 815 l 257
92 757 m 257
 107 659 l 257
 330 716 l 257
 330 815 l 257
 92 757 l 257
680 754 m 257
 680 655 l 257
 861 796 l 257
 837 892 l 257
 680 754 l 257
EndSplineSet
EndChar

StartChar: asterisk
Encoding: 42 42 32
GlifName: asterisk
Width: 1024
VWidth: 0
GlyphClass: 2
Flags: W
LayerCount: 2
Fore
SplineSet
417 1297 m 257
 417 300 l 257
 647 300 l 257
 647 1297 l 257
 417 1297 l 257
60 1099 m 257
 788 360 l 257
 947 504 l 257
 215 1241 l 257
 60 1099 l 257
812 1232 m 257
 89 525 l 257
 231 372 l 257
 954 1079 l 257
 812 1232 l 257
EndSplineSet
PickledDataWithLists: "(dp0
."
EndChar

StartChar: at
Encoding: 64 64 33
GlifName: at
Width: 1024
VWidth: 0
GlyphClass: 2
Flags: W
LayerCount: 2
Fore
SplineSet
254 1024 m 257
 255 879 l 257
 1069 879 l 257
 1073 1024 l 257
 254 1024 l 257
790 592 m 257
 789 -1 l 257
 947 0 l 257
 943 592 l 257
 790 592 l 257
457 602 m 257
 459 445 l 257
 882 444 l 257
 882 600 l 257
 457 602 l 257
454 589 m 257
 454 12 l 257
 628 12 l 257
 628 589 l 257
 454 589 l 257
452 187 m 257
 453 -2 l 257
 946 0 l 257
 946 188 l 257
 452 187 l 257
166 1024 m 257
 167 -223 l 257
 342 -223 l 257
 342 1024 l 257
 166 1024 l 257
164 -86 m 257
 164 -258 l 257
 1112 -258 l 257
 1112 -86 l 257
 164 -86 l 257
1015 1011 m 257
 1015 0 l 257
 1166 0 l 257
 1166 1011 l 257
 1015 1011 l 257
887 175 m 257
 887 1 l 257
 1096 1 l 257
 1096 175 l 257
 887 175 l 257
EndSplineSet
EndChar

StartChar: b
Encoding: 98 98 34
GlifName: b
Width: 1024
VWidth: 0
GlyphClass: 2
Flags: W
LayerCount: 2
Fore
SplineSet
135 1536 m 257
 135 1 l 257
 334 1 l 257
 334 1536 l 257
 135 1536 l 257
232 1033 m 257
 232 834 l 257
 750 834 l 257
 750 1033 l 257
 232 1033 l 257
690 1033 m 257
 690 0 l 257
 889 0 l 257
 889 1033 l 257
 690 1033 l 257
260 207 m 257
 260 1 l 257
 810 1 l 257
 810 207 l 257
 260 207 l 257
EndSplineSet
EndChar

StartChar: backslash
Encoding: 92 92 35
GlifName: backslash
Width: 1024
VWidth: 0
GlyphClass: 2
Flags: W
LayerCount: 2
Fore
SplineSet
168 1441 m 257
 795 -13 l 257
 986 65 l 257
 360 1519 l 257
 168 1441 l 257
EndSplineSet
PickledDataWithLists: "(dp0
."
EndChar

StartChar: bar
Encoding: 124 124 36
GlifName: bar
Width: 1024
VWidth: 0
GlyphClass: 2
Flags: W
LayerCount: 2
Fore
SplineSet
525 1435 m 257
 525 -90 l 257
 728 -90 l 257
 728 1435 l 257
 525 1435 l 257
EndSplineSet
PickledDataWithLists: "(dp0
."
EndChar

StartChar: braceleft
Encoding: 123 123 37
GlifName: braceleft
Width: 1024
VWidth: 0
GlyphClass: 2
Flags: W
LayerCount: 2
Fore
SplineSet
421 1544 m 257
 425 838 l 257
 571 838 l 257
 567 1544 l 257
 421 1544 l 257
433 424 m 257
 433 -286 l 257
 579 -286 l 257
 579 424 l 257
 433 424 l 257
132 690 m 257
 132 630 l 257
 567 838 l 257
 421 838 l 257
 132 690 l 257
132 690 m 257
 132 630 l 257
 431 423 l 257
 580 425 l 257
 132 690 l 257
422 1603 m 257
 422 1452 l 257
 690 1574 l 257
 694 1603 l 257
 422 1603 l 257
434 -140 m 257
 434 -284 l 257
 709 -287 l 257
 710 -274 l 257
 434 -140 l 257
EndSplineSet
EndChar

StartChar: braceright
Encoding: 125 125 38
GlifName: braceright
Width: 1024
VWidth: 0
GlyphClass: 2
Flags: W
LayerCount: 2
Fore
SplineSet
437 1544 m 257
 433 838 l 257
 271 838 l 257
 275 1544 l 257
 437 1544 l 257
423 424 m 257
 423 -286 l 257
 263 -286 l 257
 263 424 l 257
 423 424 l 257
710 690 m 257
 710 630 l 257
 271 838 l 257
 432 838 l 257
 710 690 l 257
710 690 m 257
 710 630 l 257
 423 424 l 257
 263 424 l 257
 710 690 l 257
438 1603 m 257
 435 1452 l 257
 167 1574 l 257
 163 1603 l 257
 438 1603 l 257
408 -140 m 257
 408 -284 l 257
 133 -287 l 257
 132 -274 l 257
 408 -140 l 257
EndSplineSet
EndChar

StartChar: bracketleft
Encoding: 91 91 39
GlifName: bracketleft
Width: 1024
VWidth: 0
GlyphClass: 2
Flags: W
LayerCount: 2
Fore
SplineSet
162 1542 m 257
 167 -242 l 257
 289 -242 l 257
 284 1542 l 257
 162 1542 l 257
216 1543 m 257
 216 1416 l 257
 425 1416 l 257
 425 1543 l 257
 216 1543 l 257
216 -91 m 257
 216 -242 l 257
 430 -242 l 257
 430 -91 l 257
 216 -91 l 257
EndSplineSet
PickledDataWithLists: "(dp0
."
EndChar

StartChar: bracketright
Encoding: 93 93 40
GlifName: bracketright
Width: 1024
VWidth: 0
GlyphClass: 2
Flags: W
LayerCount: 2
Fore
SplineSet
366 1542 m 257
 371 -242 l 257
 493 -242 l 257
 488 1542 l 257
 366 1542 l 257
216 1543 m 257
 216 1416 l 257
 425 1416 l 257
 425 1543 l 257
 216 1543 l 257
216 -91 m 257
 216 -242 l 257
 430 -242 l 257
 430 -91 l 257
 216 -91 l 257
EndSplineSet
PickledDataWithLists: "(dp0
."
EndChar

StartChar: c
Encoding: 99 99 41
GlifName: c
Width: 1024
VWidth: 0
GlyphClass: 2
Flags: W
LayerCount: 2
Fore
SplineSet
164 1023 m 257
 166 826 l 257
 858 826 l 257
 860 1027 l 257
 164 1023 l 257
166 984 m 257
 166 -1 l 257
 368 0 l 257
 368 984 l 257
 166 984 l 257
272 201 m 257
 272 4 l 257
 854 0 l 257
 854 201 l 257
 272 201 l 257
EndSplineSet
EndChar

StartChar: colon
Encoding: 58 58 42
GlifName: colon
Width: 1024
VWidth: 0
GlyphClass: 2
Flags: W
LayerCount: 2
Fore
SplineSet
399 430 m 257
 399 201 l 257
 647 201 l 257
 647 430 l 257
 399 430 l 257
376 871 m 257
 376 624 l 257
 641 624 l 257
 641 871 l 257
 376 871 l 257
EndSplineSet
PickledDataWithLists: "(dp0
."
EndChar

StartChar: comma
Encoding: 44 44 43
GlifName: comma
Width: 1024
VWidth: 0
GlyphClass: 2
Flags: W
LayerCount: 2
Fore
SplineSet
397 237 m 257
 397 8 l 257
 645 8 l 257
 645 237 l 257
 397 237 l 257
496 135 m 257
 378 -146 l 257
 521 -206 l 257
 643 4 l 257
 496 135 l 257
EndSplineSet
PickledDataWithLists: "(dp0
."
EndChar

StartChar: d
Encoding: 100 100 44
GlifName: d
Width: 1024
VWidth: 0
GlyphClass: 2
Flags: W
LayerCount: 2
Fore
SplineSet
692 1527 m 257
 692 0 l 257
 893 0 l 257
 893 1527 l 257
 692 1527 l 257
228 1023 m 257
 233 822 l 257
 781 822 l 257
 781 1023 l 257
 228 1023 l 257
132 1024 m 257
 132 0 l 257
 334 0 l 257
 333 1022 l 257
 132 1024 l 257
228 195 m 257
 228 -1 l 257
 845 0 l 257
 845 195 l 257
 228 195 l 257
EndSplineSet
EndChar

StartChar: uni0921
Encoding: 2337 2337 45
GlifName: dda-deva
Width: 1024
VWidth: 0
Flags: W
LayerCount: 2
Fore
SplineSet
2 1549 m 257
 2 1345 l 257
 1029 1345 l 257
 1029 1549 l 257
 2 1549 l 257
384 1545 m 257
 384 1014 l 257
 583 1014 l 257
 583 1545 l 257
 384 1545 l 257
384 1025 m 257
 384 815 l 257
 927 815 l 257
 927 1025 l 257
 384 1025 l 257
754 1025 m 257
 754 5 l 257
 953 5 l 257
 953 1025 l 257
 754 1025 l 257
62 200 m 257
 62 0 l 257
 953 0 l 257
 953 200 l 257
 62 200 l 257
62 331 m 257
 62 5 l 257
 262 5 l 257
 262 331 l 257
 62 331 l 257
EndSplineSet
PickledDataWithLists: "(dp0
Vxyz.fontra.layer-names
p1
(dp2
VSamaano-Bold/public.default
p3
Vdefault
p4
ss."
EndChar

StartChar: uni0922
Encoding: 2338 2338 46
GlifName: ddha-deva
Width: 1024
VWidth: 0
Flags: W
LayerCount: 2
Fore
SplineSet
10 1549 m 257
 10 1348 l 257
 1024 1348 l 257
 1024 1549 l 257
 10 1549 l 257
569 1528 m 257
 569 988 l 257
 769 988 l 257
 769 1528 l 257
 569 1528 l 257
769 1023 m 257
 120 1023 l 257
 120 822 l 257
 769 822 l 257
 769 1023 l 257
99 1024 m 257
 99 5 l 257
 299 5 l 257
 299 1024 l 257
 99 1024 l 257
99 201 m 257
 99 0 l 257
 812 0 l 257
 812 201 l 257
 99 201 l 257
613 544 m 257
 613 -2 l 257
 814 -2 l 257
 814 544 l 257
 613 544 l 257
560 547 m 257
 560 347 l 257
 812 347 l 257
 812 547 l 257
 560 547 l 257
EndSplineSet
PickledDataWithLists: "(dp0
Vxyz.fontra.layer-names
p1
(dp2
VSamaano-Bold/public.default
p3
Vdefault
p4
ss."
EndChar

StartChar: dollar
Encoding: 36 36 47
GlifName: dollar
Width: 1024
VWidth: 0
GlyphClass: 2
Flags: W
LayerCount: 2
Fore
SplineSet
146 1539 m 257
 146 1358 l 257
 744 1358 l 257
 744 1539 l 257
 146 1539 l 257
146 1542 m 257
 146 1028 l 257
 351 1028 l 257
 351 1542 l 257
 146 1542 l 257
174 163 m 257
 174 0 l 257
 882 0 l 257
 882 163 l 257
 174 163 l 257
712 1 m 257
 918 1 l 257
 918 355 l 257
 712 355 l 257
 712 1 l 257
146 1028 m 257
 712 355 l 257
 918 355 l 257
 351 1028 l 257
 146 1028 l 257
405 1636 m 257
 405 -215 l 257
 619 -215 l 257
 619 1636 l 257
 405 1636 l 257
EndSplineSet
PickledDataWithLists: "(dp0
."
EndChar

StartChar: e
Encoding: 101 101 48
GlifName: e
Width: 1024
VWidth: 0
GlyphClass: 2
Flags: W
LayerCount: 2
Fore
SplineSet
219 1021 m 257
 227 812 l 257
 851 812 l 257
 854 1024 l 257
 219 1021 l 257
169 1024 m 257
 165 -1 l 257
 372 1 l 257
 371 1022 l 257
 169 1024 l 257
271 197 m 257
 270 0 l 257
 853 0 l 257
 853 201 l 257
 271 197 l 257
239 625 m 257
 247 445 l 257
 825 446 l 257
 829 625 l 257
 239 625 l 257
657 994 m 257
 653 444 l 257
 862 445 l 257
 852 993 l 257
 657 994 l 257
EndSplineSet
EndChar

StartChar: eight
Encoding: 56 56 49
GlifName: eight
Width: 1024
VWidth: 0
GlyphClass: 2
Flags: W
LayerCount: 2
Fore
SplineSet
137 0 m 257
 137 856 l 257
 335 856 l 257
 335 0 l 257
 137 0 l 257
137 895 m 257
 130 1639 l 257
 334 1639 l 257
 335 896 l 257
 137 895 l 257
146 0 m 257
 145 212 l 257
 1043 213 l 257
 1043 -3 l 257
 146 0 l 257
181 1415 m 257
 181 1638 l 257
 987 1639 l 257
 987 1417 l 257
 181 1415 l 257
137 759 m 257
 137 986 l 257
 1042 986 l 257
 1042 759 l 257
 137 759 l 257
854 33 m 257
 854 864 l 257
 1042 864 l 257
 1042 33 l 257
 854 33 l 257
849 950 m 257
 849 1638 l 257
 1043 1638 l 257
 1042 948 l 257
 849 950 l 257
EndSplineSet
EndChar

StartChar: equal
Encoding: 61 61 50
GlifName: equal
Width: 1024
VWidth: 0
GlyphClass: 2
Flags: W
LayerCount: 2
Fore
SplineSet
130 914 m 257
 130 724 l 257
 947 724 l 257
 947 914 l 257
 130 914 l 257
130 540 m 257
 130 350 l 257
 947 350 l 257
 947 540 l 257
 130 540 l 257
EndSplineSet
PickledDataWithLists: "(dp0
."
EndChar

StartChar: exclam
Encoding: 33 33 51
GlifName: exclam
Width: 1024
VWidth: 0
GlyphClass: 2
Flags: W
LayerCount: 2
Fore
SplineSet
528 17 m 257
 672 17 l 257
 672 265 l 257
 528 265 l 257
 528 17 l 257
538 502 m 257
 666 502 l 257
 666 1520 l 257
 538 1520 l 257
 538 502 l 257
EndSplineSet
EndChar

StartChar: f
Encoding: 102 102 52
GlifName: f
Width: 1024
VWidth: 0
GlyphClass: 2
Flags: W
LayerCount: 2
Fore
SplineSet
316 1024 m 257
 333 -411 l 257
 533 -406 l 257
 516 1025 l 257
 316 1024 l 257
378 1023 m 257
 378 831 l 257
 860 831 l 257
 860 1025 l 257
 378 1023 l 257
132 559 m 257
 132 356 l 257
 763 356 l 257
 763 559 l 257
 132 559 l 257
EndSplineSet
EndChar

StartChar: five
Encoding: 53 53 53
GlifName: five
Width: 1024
VWidth: 0
GlyphClass: 2
Flags: W
LayerCount: 2
Fore
SplineSet
127 863 m 257
 127 1619 l 257
 330 1619 l 257
 330 863 l 257
 127 863 l 257
126 190 m 257
 1065 188 l 257
 1064 -2 l 257
 123 0 l 257
 126 190 l 257
128 1418 m 257
 128 1629 l 257
 1072 1641 l 257
 1072 1418 l 257
 128 1418 l 257
127 759 m 257
 127 986 l 257
 1062 986 l 257
 1062 759 l 257
 127 759 l 257
858 52 m 257
 858 947 l 257
 1063 947 l 257
 1063 52 l 257
 858 52 l 257
EndSplineSet
EndChar

StartChar: four
Encoding: 52 52 54
GlifName: four
Width: 1024
VWidth: 0
GlyphClass: 2
Flags: W
LayerCount: 2
Fore
SplineSet
148 884 m 257
 148 1640 l 257
 351 1640 l 257
 351 884 l 257
 148 884 l 257
147 759 m 257
 147 986 l 257
 988 988 l 257
 988 761 l 257
 147 759 l 257
783 7 m 257
 783 818 l 257
 992 818 l 257
 992 7 l 257
 783 7 l 257
792 940 m 257
 792 1627 l 257
 986 1627 l 257
 986 940 l 257
 792 940 l 257
EndSplineSet
EndChar

StartChar: g
Encoding: 103 103 55
GlifName: g
Width: 1024
VWidth: 0
GlyphClass: 2
Flags: W
LayerCount: 2
Fore
SplineSet
297 1024 m 257
 297 0 l 257
 489 0 l 257
 489 1024 l 257
 297 1024 l 257
337 1024 m 257
 337 823 l 257
 853 823 l 257
 853 1024 l 257
 337 1024 l 257
681 1024 m 257
 681 -411 l 257
 875 -411 l 257
 875 1024 l 257
 681 1024 l 257
360 198 m 257
 360 -1 l 257
 817 -1 l 257
 817 198 l 257
 360 198 l 257
291 -214 m 257
 291 -413 l 257
 826 -413 l 257
 826 -214 l 257
 291 -214 l 257
EndSplineSet
EndChar

StartChar: grave
Encoding: 96 96 56
GlifName: grave
Width: 1024
VWidth: 0
GlyphClass: 2
Flags: W
LayerCount: 2
Fore
SplineSet
266 1358 m 257
 411 1057 l 257
 560 1129 l 257
 414 1430 l 257
 266 1358 l 257
EndSplineSet
PickledDataWithLists: "(dp0
."
EndChar

StartChar: gravecomb
Encoding: 768 768 57
GlifName: gravecomb
Width: 1024
VWidth: 0
GlyphClass: 2
Flags: W
LayerCount: 2
Fore
SplineSet
421 907 m 257
 541 671 l 257
 632 717 l 257
 513 954 l 257
 421 907 l 257
EndSplineSet
PickledDataWithLists: "(dp0
."
EndChar

StartChar: greater
Encoding: 62 62 58
GlifName: greater
Width: 1024
VWidth: 0
GlyphClass: 2
Flags: W
LayerCount: 2
Fore
SplineSet
955 777 m 257
 133 1013 l 257
 130 807 l 257
 956 568 l 257
 955 777 l 257
955 777 m 257
 135 319 l 257
 135 122 l 257
 956 568 l 257
 955 777 l 257
EndSplineSet
PickledDataWithLists: "(dp0
."
EndChar

StartChar: h
Encoding: 104 104 59
GlifName: h
Width: 1024
VWidth: 0
GlyphClass: 2
Flags: W
LayerCount: 2
Fore
SplineSet
174 1541 m 257
 174 6 l 257
 374 6 l 257
 374 1541 l 257
 174 1541 l 257
311 1025 m 257
 311 826 l 257
 842 826 l 257
 842 1025 l 257
 311 1025 l 257
651 1024 m 257
 651 1 l 257
 850 1 l 257
 850 1024 l 257
 651 1024 l 257
EndSplineSet
EndChar

StartChar: hyphen
Encoding: 45 45 60
GlifName: hyphen
Width: 1024
VWidth: 0
GlyphClass: 2
Flags: W
LayerCount: 2
Fore
SplineSet
99 808 m 257
 99 600 l 257
 925 600 l 257
 925 808 l 257
 99 808 l 257
EndSplineSet
PickledDataWithLists: "(dp0
."
EndChar

StartChar: i
Encoding: 105 105 61
GlifName: i
Width: 1024
VWidth: 0
GlyphClass: 2
Flags: W
LayerCount: 2
Fore
SplineSet
411 1018 m 257
 411 139 l 257
 613 139 l 257
 613 1018 l 257
 411 1018 l 257
141 204 m 257
 141 6 l 257
 883 6 l 257
 883 204 l 257
 141 204 l 257
347 1369 m 257
 347 1168 l 257
 545 1168 l 257
 545 1369 l 257
 347 1369 l 257
191 1018 m 257
 191 818 l 257
 567 818 l 257
 567 1018 l 257
 191 1018 l 257
EndSplineSet
EndChar

StartChar: j
Encoding: 106 106 62
GlifName: j
Width: 1024
VWidth: 0
GlyphClass: 2
Flags: W
LayerCount: 2
Fore
SplineSet
627 1024 m 257
 627 -411 l 257
 826 -411 l 257
 826 1024 l 257
 627 1024 l 257
197 -209 m 257
 197 -409 l 257
 727 -409 l 257
 727 -209 l 257
 197 -209 l 257
198 -6 m 257
 198 -351 l 257
 398 -351 l 257
 398 -6 l 257
 198 -6 l 257
619 1413 m 257
 619 1214 l 257
 820 1214 l 257
 820 1413 l 257
 619 1413 l 257
EndSplineSet
EndChar

StartChar: k
Encoding: 107 107 63
GlifName: k
Width: 1024
VWidth: 0
GlyphClass: 2
Flags: W
LayerCount: 2
Fore
SplineSet
118 1535 m 257
 118 5 l 257
 318 5 l 257
 318 1535 l 257
 118 1535 l 257
167 516 m 257
 216 298 l 257
 903 1023 l 257
 686 1028 l 257
 167 516 l 257
424 631 m 257
 272 483 l 257
 722 -3 l 257
 960 -2 l 257
 424 631 l 257
EndSplineSet
EndChar

StartChar: l
Encoding: 108 108 64
GlifName: l
Width: 1024
VWidth: 0
GlyphClass: 2
Flags: W
LayerCount: 2
Fore
SplineSet
195 209 m 257
 195 9 l 257
 829 9 l 257
 829 209 l 257
 195 209 l 257
412 1548 m 257
 412 86 l 257
 612 86 l 257
 612 1547 l 257
 412 1548 l 257
256 1548 m 257
 256 1349 l 257
 491 1349 l 257
 491 1548 l 257
 256 1548 l 257
EndSplineSet
EndChar

StartChar: less
Encoding: 60 60 65
GlifName: less
Width: 1024
VWidth: 0
GlyphClass: 2
Flags: W
LayerCount: 2
Fore
SplineSet
134 777 m 257
 134 569 l 257
 955 807 l 257
 952 1013 l 257
 134 777 l 257
134 777 m 257
 134 569 l 257
 950 122 l 257
 950 319 l 257
 134 777 l 257
EndSplineSet
PickledDataWithLists: "(dp0
."
EndChar

StartChar: m
Encoding: 109 109 66
GlifName: m
Width: 1024
VWidth: 0
GlyphClass: 2
Flags: W
LayerCount: 2
Fore
SplineSet
110 993 m 257
 110 1 l 257
 310 1 l 257
 310 993 l 257
 110 993 l 257
425 972 m 257
 425 -2 l 257
 625 -2 l 257
 625 972 l 257
 425 972 l 257
740 976 m 257
 740 1 l 257
 940 1 l 257
 940 976 l 257
 740 976 l 257
33 1021 m 257
 34 820 l 257
 940 826 l 257
 939 1027 l 257
 33 1021 l 257
EndSplineSet
EndChar

StartChar: n
Encoding: 110 110 67
GlifName: n
Width: 1024
VWidth: 0
GlyphClass: 2
Flags: W
LayerCount: 2
Fore
SplineSet
244 990 m 257
 244 -2 l 257
 445 -2 l 257
 445 990 l 257
 244 990 l 257
643 976 m 257
 643 1 l 257
 844 1 l 257
 844 976 l 257
 643 976 l 257
65 1021 m 257
 66 820 l 257
 844 826 l 257
 843 1027 l 257
 65 1021 l 257
EndSplineSet
EndChar

StartChar: nine
Encoding: 57 57 68
GlifName: nine
Width: 1024
VWidth: 0
GlyphClass: 2
Flags: W
LayerCount: 2
Fore
SplineSet
122 868 m 257
 122 1624 l 257
 325 1624 l 257
 325 868 l 257
 122 868 l 257
199 205 m 257
 977 208 l 257
 980 -1 l 257
 211 -1 l 257
 199 205 l 257
123 1419 m 257
 122 1640 l 257
 1057 1637 l 257
 1058 1416 l 257
 123 1419 l 257
122 759 m 257
 122 986 l 257
 1062 986 l 257
 1062 759 l 257
 122 759 l 257
862 1 m 257
 863 838 l 257
 1063 833 l 257
 1067 0 l 257
 862 1 l 257
863 879 m 257
 863 1511 l 257
 1057 1511 l 257
 1062 879 l 257
 863 879 l 257
EndSplineSet
EndChar

StartChar: uni0923
Encoding: 2339 2339 69
GlifName: nna-deva
Width: 1024
VWidth: 0
Flags: W
LayerCount: 2
Fore
SplineSet
-1 1548 m 257
 -1 1350 l 257
 1029 1350 l 257
 1029 1548 l 257
 -1 1548 l 257
721 1530 m 257
 721 -1 l 257
 921 -1 l 257
 921 1530 l 257
 721 1530 l 257
109 1543 m 257
 109 855 l 257
 309 855 l 257
 309 1543 l 257
 109 1543 l 257
465 1528 m 257
 465 844 l 257
 665 844 l 257
 665 1528 l 257
 465 1528 l 257
109 1024 m 257
 109 825 l 257
 665 825 l 257
 665 1024 l 257
 109 1024 l 257
EndSplineSet
PickledDataWithLists: "(dp0
Vxyz.fontra.layer-names
p1
(dp2
VSamaano-Bold/public.default
p3
Vdefault
p4
ss."
EndChar

StartChar: numbersign
Encoding: 35 35 70
GlifName: numbersign
Width: 1024
VWidth: 0
GlyphClass: 2
Flags: W
LayerCount: 2
Fore
SplineSet
214 1348 m 257
 201 314 l 257
 341 313 l 257
 354 1347 l 257
 214 1348 l 257
625 1352 m 257
 613 281 l 257
 779 279 l 257
 792 1350 l 257
 625 1352 l 257
85 1165 m 257
 83 1018 l 257
 901 1010 l 257
 903 1157 l 257
 85 1165 l 257
85 776 m 257
 83 600 l 257
 910 592 l 257
 912 767 l 257
 85 776 l 257
EndSplineSet
PickledDataWithLists: "(dp0
."
EndChar

StartChar: o
Encoding: 111 111 71
GlifName: o
Width: 1024
VWidth: 0
GlyphClass: 2
Flags: W
LayerCount: 2
Fore
SplineSet
104 1024 m 257
 102 0 l 257
 306 0 l 257
 304 1022 l 257
 104 1024 l 257
719 1024 m 257
 719 0 l 257
 921 0 l 257
 921 1024 l 257
 719 1024 l 257
227 1021 m 257
 227 822 l 257
 812 822 l 257
 813 1024 l 257
 227 1021 l 257
231 200 m 257
 231 1 l 257
 803 1 l 257
 803 200 l 257
 231 200 l 257
EndSplineSet
EndChar

StartChar: one
Encoding: 49 49 72
GlifName: one
Width: 1024
VWidth: 0
GlyphClass: 2
Flags: W
LayerCount: 2
Fore
SplineSet
463 5 m 257
 463 850 l 257
 737 845 l 257
 737 0 l 257
 463 5 l 257
470 935 m 257
 470 1640 l 257
 746 1640 l 257
 746 935 l 257
 470 935 l 257
EndSplineSet
PickledDataWithLists: "(dp0
."
EndChar

StartChar: p
Encoding: 112 112 73
GlifName: p
Width: 1024
VWidth: 0
GlyphClass: 2
Flags: W
LayerCount: 2
Fore
SplineSet
173 1203 m 257
 173 -406 l 257
 373 -406 l 257
 373 1203 l 257
 173 1203 l 257
271 1020 m 257
 271 820 l 257
 812 821 l 257
 810 1020 l 257
 271 1020 l 257
275 203 m 257
 278 1 l 257
 818 1 l 257
 815 202 l 257
 275 203 l 257
613 876 m 257
 613 175 l 257
 816 175 l 257
 811 876 l 257
 613 876 l 257
EndSplineSet
EndChar

StartChar: parenleft
Encoding: 40 40 74
GlifName: parenleft
Width: 1024
VWidth: 0
GlyphClass: 2
Flags: W
LayerCount: 2
Fore
SplineSet
409 1026 m 257
 409 179 l 257
 599 179 l 257
 599 1026 l 257
 409 1026 l 257
728 1633 m 257
 409 1026 l 257
 598 1028 l 257
 758 1640 l 257
 728 1633 l 257
409 179 m 257
 753 -406 l 257
 786 -408 l 257
 600 179 l 257
 409 179 l 257
EndSplineSet
EndChar

StartChar: parenright
Encoding: 41 41 75
GlifName: parenright
Width: 1024
VWidth: 0
GlyphClass: 2
Flags: W
LayerCount: 2
Fore
SplineSet
347 1026 m 257
 537 1026 l 257
 537 179 l 257
 347 179 l 257
 347 1026 l 257
204 1630 m 257
 242 1629 l 257
 537 1026 l 257
 347 1025 l 257
 204 1630 l 257
347 179 m 257
 537 179 l 257
 233 -409 l 257
 204 -407 l 257
 347 179 l 257
EndSplineSet
EndChar

StartChar: percent
Encoding: 37 37 76
GlifName: percent
Width: 1024
VWidth: 0
GlyphClass: 2
Flags: W
LayerCount: 2
Fore
SplineSet
97 522 m 257
 140 377 l 257
 964 716 l 257
 920 860 l 257
 97 522 l 257
237 1148 m 257
 237 822 l 257
 315 822 l 257
 315 1148 l 257
 237 1148 l 257
237 1152 m 257
 237 1057 l 257
 584 1057 l 257
 584 1152 l 257
 237 1152 l 257
237 871 m 257
 237 789 l 257
 581 789 l 257
 581 871 l 257
 237 871 l 257
492 1152 m 257
 492 791 l 257
 584 791 l 257
 584 1152 l 257
 492 1152 l 257
564 436 m 257
 564 110 l 257
 642 110 l 257
 642 436 l 257
 564 436 l 257
564 440 m 257
 564 345 l 257
 911 345 l 257
 911 440 l 257
 564 440 l 257
564 159 m 257
 564 77 l 257
 908 77 l 257
 908 159 l 257
 564 159 l 257
819 440 m 257
 819 79 l 257
 911 79 l 257
 911 440 l 257
 819 440 l 257
EndSplineSet
PickledDataWithLists: "(dp0
."
EndChar

StartChar: period
Encoding: 46 46 77
GlifName: period
Width: 1024
VWidth: 0
GlyphClass: 2
Flags: W
LayerCount: 2
Fore
SplineSet
379 246 m 257
 379 -1 l 257
 644 -1 l 257
 644 246 l 257
 379 246 l 257
EndSplineSet
PickledDataWithLists: "(dp0
."
EndChar

StartChar: plus
Encoding: 43 43 78
GlifName: plus
Width: 1024
VWidth: 0
GlyphClass: 2
Flags: W
LayerCount: 2
Fore
SplineSet
384 1221 m 257
 384 165 l 257
 609 165 l 257
 609 1221 l 257
 384 1221 l 257
61 821 m 257
 61 613 l 257
 963 613 l 257
 963 821 l 257
 61 821 l 257
EndSplineSet
PickledDataWithLists: "(dp0
."
EndChar

StartChar: q
Encoding: 113 113 79
GlifName: q
Width: 1024
VWidth: 0
GlyphClass: 2
Flags: W
LayerCount: 2
Fore
SplineSet
662 1201 m 257
 662 -410 l 257
 861 -410 l 257
 861 1201 l 257
 662 1201 l 257
189 1022 m 257
 189 823 l 257
 838 823 l 257
 838 1022 l 257
 189 1022 l 257
190 203 m 257
 190 2 l 257
 806 2 l 257
 806 203 l 257
 190 203 l 257
188 855 m 257
 188 107 l 257
 388 107 l 257
 388 855 l 257
 188 855 l 257
701 -268 m 257
 701 -410 l 257
 937 -410 l 257
 937 -268 l 257
 701 -268 l 257
EndSplineSet
EndChar

StartChar: question
Encoding: 63 63 80
GlifName: question
Width: 1024
VWidth: 0
GlyphClass: 2
Flags: W
LayerCount: 2
Fore
SplineSet
368 246 m 257
 368 0 l 257
 618 0 l 257
 613 247 l 257
 368 246 l 257
191 1519 m 257
 191 1333 l 257
 828 1333 l 257
 828 1519 l 257
 191 1519 l 257
638 1514 m 257
 638 966 l 257
 832 966 l 257
 832 1514 l 257
 638 1514 l 257
368 1015 m 257
 368 816 l 257
 832 816 l 257
 832 1015 l 257
 368 1015 l 257
368 1011 m 257
 368 392 l 257
 616 392 l 257
 616 1011 l 257
 368 1011 l 257
EndSplineSet
PickledDataWithLists: "(dp0
."
EndChar

StartChar: quotedbl
Encoding: 34 34 81
GlifName: quotedbl
Width: 1024
VWidth: 0
GlyphClass: 2
Flags: W
LayerCount: 2
Fore
SplineSet
328 1326 m 257
 472 1326 l 257
 472 1574 l 257
 328 1574 l 257
 328 1326 l 257
728 1326 m 257
 872 1326 l 257
 872 1574 l 257
 728 1574 l 257
 728 1326 l 257
EndSplineSet
EndChar

StartChar: quotesingle
Encoding: 39 39 82
GlifName: quotesingle
Width: 1024
VWidth: 0
GlyphClass: 2
Flags: W
LayerCount: 2
Fore
SplineSet
480 1496 m 257
 480 1264 l 257
 610 1264 l 257
 610 1496 l 257
 480 1496 l 257
EndSplineSet
PickledDataWithLists: "(dp0
."
EndChar

StartChar: r
Encoding: 114 114 83
GlifName: r
Width: 1024
VWidth: 0
GlyphClass: 2
Flags: W
LayerCount: 2
Fore
SplineSet
165 1021 m 257
 165 821 l 257
 898 821 l 257
 898 1021 l 257
 165 1021 l 257
380 954 m 257
 380 -2 l 257
 580 -2 l 257
 580 954 l 257
 380 954 l 257
698 976 m 257
 698 650 l 257
 898 650 l 257
 898 976 l 257
 698 976 l 257
EndSplineSet
EndChar

StartChar: s
Encoding: 115 115 84
GlifName: s
Width: 1024
VWidth: 0
GlyphClass: 2
Flags: W
LayerCount: 2
Fore
SplineSet
186 1024 m 257
 187 822 l 257
 796 826 l 257
 795 1024 l 257
 186 1024 l 257
186 1024 m 257
 187 736 l 257
 387 736 l 257
 386 1024 l 257
 186 1024 l 257
187 200 m 257
 186 1 l 257
 793 0 l 257
 792 201 l 257
 187 200 l 257
591 292 m 257
 594 12 l 257
 793 12 l 257
 791 293 l 257
 591 292 l 257
187 736 m 257
 591 292 l 257
 791 293 l 257
 387 736 l 257
 187 736 l 257
EndSplineSet
EndChar

StartChar: semicolon
Encoding: 59 59 85
GlifName: semicolon
Width: 1024
VWidth: 0
GlyphClass: 2
Flags: W
LayerCount: 2
Fore
SplineSet
400 430 m 257
 400 201 l 257
 648 201 l 257
 648 430 l 257
 400 430 l 257
499 328 m 257
 381 47 l 257
 524 -13 l 257
 646 197 l 257
 499 328 l 257
377 871 m 257
 377 624 l 257
 642 624 l 257
 642 871 l 257
 377 871 l 257
EndSplineSet
PickledDataWithLists: "(dp0
."
EndChar

StartChar: seven
Encoding: 55 55 86
GlifName: seven
Width: 1024
VWidth: 0
GlyphClass: 2
Flags: W
LayerCount: 2
Fore
SplineSet
101 1418 m 257
 101 1629 l 257
 1006 1641 l 257
 1006 1418 l 257
 101 1418 l 257
799 866 m 257
 790 1636 l 257
 1014 1644 l 257
 1017 867 l 257
 799 866 l 257
801 0 m 257
 798 923 l 257
 1017 923 l 257
 1017 0 l 257
 801 0 l 257
EndSplineSet
EndChar

StartChar: six
Encoding: 54 54 87
GlifName: six
Width: 1024
VWidth: 0
GlyphClass: 2
Flags: W
LayerCount: 2
Fore
SplineSet
139 4 m 257
 139 824 l 257
 337 824 l 257
 337 4 l 257
 139 4 l 257
140 889 m 257
 127 1600 l 257
 331 1600 l 257
 331 888 l 257
 140 889 l 257
139 195 m 257
 1064 201 l 257
 1070 8 l 257
 141 0 l 257
 139 195 l 257
129 1418 m 257
 128 1629 l 257
 1072 1641 l 257
 1072 1418 l 257
 129 1418 l 257
138 759 m 257
 138 986 l 257
 1062 986 l 257
 1062 759 l 257
 138 759 l 257
860 51 m 257
 860 986 l 257
 1069 986 l 257
 1069 51 l 257
 860 51 l 257
EndSplineSet
EndChar

StartChar: slash
Encoding: 47 47 88
GlifName: slash
Width: 1024
VWidth: 0
GlyphClass: 2
Flags: W
LayerCount: 2
Fore
SplineSet
744 1483 m 257
 174 6 l 257
 362 -67 l 257
 932 1410 l 257
 744 1483 l 257
EndSplineSet
PickledDataWithLists: "(dp0
."
EndChar

StartChar: t
Encoding: 116 116 90
GlifName: t
Width: 1024
VWidth: 0
GlyphClass: 2
Flags: W
LayerCount: 2
Fore
SplineSet
410 1545 m 257
 410 1 l 257
 611 1 l 257
 610 1545 l 257
 410 1545 l 257
418 199 m 257
 418 0 l 257
 809 0 l 257
 809 199 l 257
 418 199 l 257
174 1024 m 257
 175 824 l 257
 849 824 l 257
 848 1025 l 257
 174 1024 l 257
EndSplineSet
EndChar

StartChar: three
Encoding: 51 51 91
GlifName: three
Width: 1024
VWidth: 0
GlyphClass: 2
Flags: W
LayerCount: 2
Fore
SplineSet
144 240 m 257
 1042 242 l 257
 1045 -8 l 257
 154 9 l 257
 144 240 l 257
176 1403 m 257
 174 1631 l 257
 930 1640 l 257
 930 1403 l 257
 176 1403 l 257
186 736 m 257
 186 1001 l 257
 1051 1001 l 257
 1051 736 l 257
 186 736 l 257
843 200 m 257
 843 756 l 257
 1048 756 l 257
 1048 200 l 257
 843 200 l 257
841 964 m 257
 841 1640 l 257
 1048 1640 l 257
 1048 964 l 257
 841 964 l 257
EndSplineSet
PickledDataWithLists: "(dp0
."
EndChar

StartChar: uni091F
Encoding: 2335 2335 92
GlifName: tta-deva
Width: 1024
VWidth: 0
Flags: W
LayerCount: 2
Fore
SplineSet
10 1549 m 257
 10 1348 l 257
 1024 1348 l 257
 1024 1549 l 257
 10 1549 l 257
569 1528 m 257
 569 988 l 257
 769 988 l 257
 769 1528 l 257
 569 1528 l 257
769 1023 m 257
 120 1023 l 257
 120 822 l 257
 769 822 l 257
 769 1023 l 257
99 1024 m 257
 99 5 l 257
 299 5 l 257
 299 1024 l 257
 99 1024 l 257
99 201 m 257
 99 0 l 257
 812 0 l 257
 812 201 l 257
 99 201 l 257
EndSplineSet
PickledDataWithLists: "(dp0
Vxyz.fontra.layer-names
p1
(dp2
VSamaano-Bold/public.default
p3
Vdefault
p4
ss."
EndChar

StartChar: uni0920
Encoding: 2336 2336 93
GlifName: ttha-deva
Width: 1024
VWidth: 0
Flags: W
LayerCount: 2
Fore
SplineSet
0 1551 m 257
 0 1350 l 257
 1026 1350 l 257
 1026 1551 l 257
 0 1551 l 257
457 1484 m 257
 457 1023 l 257
 657 1023 l 257
 657 1484 l 257
 457 1484 l 257
85 1035 m 257
 85 834 l 257
 963 834 l 257
 963 1035 l 257
 85 1035 l 257
72 1035 m 257
 72 13 l 257
 272 13 l 257
 272 1035 l 257
 72 1035 l 257
763 1035 m 257
 763 -2 l 257
 963 -2 l 257
 963 1035 l 257
 763 1035 l 257
73 198 m 257
 73 -3 l 257
 943 -3 l 257
 943 198 l 257
 73 198 l 257
EndSplineSet
PickledDataWithLists: "(dp0
Vxyz.fontra.layer-names
p1
(dp2
VSamaano-Bold/public.default
p3
Vdefault
p4
ss."
EndChar

StartChar: two
Encoding: 50 50 94
GlifName: two
Width: 1024
VWidth: 0
GlyphClass: 2
Flags: W
LayerCount: 2
Fore
SplineSet
98 130 m 257
 98 1024 l 257
 406 1024 l 257
 406 130 l 257
 98 130 l 257
102 247 m 257
 958 259 l 257
 960 0 l 257
 108 0 l 257
 102 247 l 257
230 1433 m 257
 230 1640 l 257
 909 1640 l 257
 909 1433 l 257
 230 1433 l 257
400 751 m 257
 400 1024 l 257
 883 1024 l 257
 883 751 l 257
 400 751 l 257
868 751 m 257
 868 1640 l 257
 1102 1640 l 257
 1102 751 l 257
 868 751 l 257
EndSplineSet
PickledDataWithLists: "(dp0
."
EndChar

StartChar: u
Encoding: 117 117 95
GlifName: u
Width: 1024
VWidth: 0
GlyphClass: 2
Flags: W
LayerCount: 2
Fore
SplineSet
139 1024 m 257
 139 0 l 257
 338 0 l 257
 340 1024 l 257
 139 1024 l 257
571 1026 m 257
 571 4 l 257
 772 4 l 257
 771 1026 l 257
 571 1026 l 257
186 200 m 257
 187 0 l 257
 888 0 l 257
 888 200 l 257
 186 200 l 257
EndSplineSet
EndChar

StartChar: underscore
Encoding: 95 95 96
GlifName: underscore
Width: 1019
VWidth: 0
GlyphClass: 2
Flags: W
LayerCount: 2
Fore
SplineSet
-5 -5 m 257
 -9 -71 l 257
 1015 -71 l 257
 1019 -5 l 257
 -5 -5 l 257
EndSplineSet
EndChar

StartChar: uni0900
Encoding: 2304 2304 97
GlifName: uni0900
Width: 1024
VWidth: 0
GlyphClass: 2
Flags: W
LayerCount: 2
Fore
SplineSet
110 2124 m 257
 110 1639 l 257
 309 1639 l 257
 309 2124 l 257
 110 2124 l 257
156 2126 m 257
 156 1925 l 257
 790 1925 l 257
 790 2126 l 257
 156 2126 l 257
714 2127 m 257
 714 1636 l 257
 914 1636 l 257
 914 2127 l 257
 714 2127 l 257
411 1865 m 257
 411 1665 l 257
 611 1665 l 257
 611 1865 l 257
 411 1865 l 257
-8 1546 m 257
 -4 1347 l 257
 1025 1347 l 257
 1021 1546 l 257
 -8 1546 l 257
EndSplineSet
PickledDataWithLists: "(dp0
."
EndChar

StartChar: uni0901
Encoding: 2305 2305 98
GlifName: uni0901
Width: 1024
VWidth: 0
GlyphClass: 2
Flags: W
LayerCount: 2
Fore
SplineSet
153 2124 m 257
 153 1639 l 257
 352 1639 l 257
 352 2124 l 257
 153 2124 l 257
199 1842 m 257
 199 1641 l 257
 833 1641 l 257
 833 1842 l 257
 199 1842 l 257
757 2132 m 257
 757 1641 l 257
 957 1641 l 257
 957 2132 l 257
 757 2132 l 257
455 2095 m 257
 455 1895 l 257
 655 1895 l 257
 655 2095 l 257
 455 2095 l 257
-4 1546 m 257
 -4 1347 l 257
 1025 1347 l 257
 1025 1546 l 257
 -4 1546 l 257
EndSplineSet
PickledDataWithLists: "(dp0
."
EndChar

StartChar: uni0902
Encoding: 2306 2306 99
GlifName: uni0902
Width: 1024
VWidth: 0
GlyphClass: 2
Flags: W
LayerCount: 2
Fore
SplineSet
412 1949 m 257
 412 1749 l 257
 612 1749 l 257
 612 1949 l 257
 412 1949 l 257
-4 1546 m 257
 -4 1347 l 257
 1025 1347 l 257
 1025 1546 l 257
 -4 1546 l 257
EndSplineSet
PickledDataWithLists: "(dp0
."
EndChar

StartChar: uni0903
Encoding: 2307 2307 100
GlifName: uni0903
Width: 1024
VWidth: 0
GlyphClass: 2
Flags: W
LayerCount: 2
Fore
SplineSet
412 649 m 257
 412 449 l 257
 612 449 l 257
 612 649 l 257
 412 649 l 257
412 1317 m 257
 412 1117 l 257
 612 1117 l 257
 612 1317 l 257
 412 1317 l 257
EndSplineSet
EndChar

StartChar: uni0904
Encoding: 2308 2308 101
GlifName: uni0904
Width: 1024
VWidth: 0
GlyphClass: 2
Flags: W
LayerCount: 2
Fore
SplineSet
266 2155 m 257
 266 1836 l 257
 464 1836 l 257
 464 2155 l 257
 266 2155 l 257
265 1967 m 257
 265 1768 l 257
 948 1768 l 257
 948 1967 l 257
 265 1967 l 257
749 1956 m 257
 749 1516 l 257
 950 1516 l 257
 950 1956 l 257
 749 1956 l 257
716 1543 m 257
 716 1343 l 257
 1013 1343 l 257
 1013 1543 l 257
 716 1543 l 257
777 1419 m 257
 777 1 l 257
 976 1 l 257
 976 1419 l 257
 777 1419 l 257
50 1547 m 257
 50 1348 l 257
 573 1348 l 257
 573 1547 l 257
 50 1547 l 257
399 1550 m 257
 399 140 l 257
 599 140 l 257
 599 1550 l 257
 399 1550 l 257
134 894 m 257
 134 693 l 257
 831 693 l 257
 831 894 l 257
 134 894 l 257
25 201 m 257
 25 1 l 257
 599 1 l 257
 599 201 l 257
 25 201 l 257
EndSplineSet
EndChar

StartChar: uni0905
Encoding: 2309 2309 102
GlifName: a-deva
Width: 1024
VWidth: 0
GlyphClass: 2
Flags: W
LayerCount: 2
Fore
SplineSet
716 1548 m 257
 716 1348 l 257
 1027 1348 l 257
 1027 1548 l 257
 716 1548 l 257
777 1419 m 257
 777 1 l 257
 976 1 l 257
 976 1419 l 257
 777 1419 l 257
50 1547 m 257
 50 1348 l 257
 573 1348 l 257
 573 1547 l 257
 50 1547 l 257
399 1548 m 257
 399 140 l 257
 599 140 l 257
 599 1548 l 257
 399 1548 l 257
134 894 m 257
 134 693 l 257
 831 693 l 257
 831 894 l 257
 134 894 l 257
25 201 m 257
 25 1 l 257
 599 1 l 257
 599 201 l 257
 25 201 l 257
EndSplineSet
EndChar

StartChar: uni0906
Encoding: 2310 2310 103
GlifName: aa-deva
Width: 1024
VWidth: 0
GlyphClass: 2
Flags: W
LayerCount: 2
Fore
SplineSet
528 1548 m 257
 528 1343 l 257
 1016 1343 l 257
 1016 1548 l 257
 528 1548 l 257
544 1419 m 257
 544 1 l 257
 743 1 l 257
 743 1419 l 257
 544 1419 l 257
25 1548 m 257
 25 1348 l 257
 385 1348 l 257
 385 1548 l 257
 25 1548 l 257
211 1548 m 257
 211 140 l 257
 411 140 l 257
 411 1548 l 257
 211 1548 l 257
109 894 m 257
 109 693 l 257
 643 693 l 257
 643 894 l 257
 109 894 l 257
0 201 m 257
 0 1 l 257
 411 1 l 257
 411 201 l 257
 0 201 l 257
811 1420 m 257
 811 2 l 257
 1010 2 l 257
 1010 1420 l 257
 811 1420 l 257
EndSplineSet
EndChar

StartChar: uni0907
Encoding: 2311 2311 104
GlifName: i-deva
Width: 1024
VWidth: 0
GlyphClass: 2
Flags: W
LayerCount: 2
Fore
SplineSet
-12 1556 m 257
 -12 1355 l 257
 1025 1355 l 257
 1025 1556 l 257
 -12 1556 l 257
546 1553 m 257
 546 1110 l 257
 746 1110 l 257
 746 1553 l 257
 546 1553 l 257
165 1205 m 257
 165 1004 l 257
 746 1004 l 257
 746 1205 l 257
 165 1205 l 257
165 1181 m 257
 165 738 l 257
 335 738 l 257
 335 1181 l 257
 165 1181 l 257
165 881 m 257
 165 681 l 257
 760 681 l 257
 760 881 l 257
 165 881 l 257
639 881 m 257
 639 285 l 257
 838 285 l 257
 838 881 l 257
 639 881 l 257
143 298 m 257
 143 97 l 257
 841 97 l 257
 841 298 l 257
 143 298 l 257
259 298 m 257
 259 -244 l 257
 459 -244 l 257
 459 298 l 257
 259 298 l 257
EndSplineSet
PickledDataWithLists: "(dp0
."
EndChar

StartChar: uni0908
Encoding: 2312 2312 105
GlifName: ii-deva
Width: 1024
VWidth: 0
GlyphClass: 2
Flags: W
LayerCount: 2
Fore
SplineSet
-12 1556 m 257
 -12 1355 l 257
 1025 1355 l 257
 1025 1556 l 257
 -12 1556 l 257
546 1553 m 257
 546 1110 l 257
 746 1110 l 257
 746 1553 l 257
 546 1553 l 257
165 1205 m 257
 165 1004 l 257
 746 1004 l 257
 746 1205 l 257
 165 1205 l 257
165 1181 m 257
 165 738 l 257
 365 738 l 257
 365 1181 l 257
 165 1181 l 257
165 881 m 257
 165 681 l 257
 760 681 l 257
 760 881 l 257
 165 881 l 257
657 881 m 257
 657 285 l 257
 838 285 l 257
 838 881 l 257
 657 881 l 257
143 298 m 257
 143 97 l 257
 841 97 l 257
 841 298 l 257
 143 298 l 257
259 298 m 257
 259 -244 l 257
 482 -244 l 257
 482 298 l 257
 259 298 l 257
268 1770 m 257
 515 1423 l 257
 678 1539 l 257
 430 1886 l 257
 268 1770 l 257
EndSplineSet
PickledDataWithLists: "(dp0
."
EndChar

StartChar: uni0909
Encoding: 2313 2313 106
GlifName: u-deva
Width: 1024
VWidth: 0
GlyphClass: 2
Flags: W
LayerCount: 2
Fore
SplineSet
-4 1548 m 257
 -4 1349 l 257
 1022 1349 l 257
 1022 1548 l 257
 -4 1548 l 257
480 1530 m 257
 480 1001 l 257
 679 1001 l 257
 679 1530 l 257
 480 1530 l 257
235 1044 m 257
 235 845 l 257
 877 845 l 257
 877 1044 l 257
 235 1044 l 257
678 994 m 257
 678 8 l 257
 878 8 l 257
 878 994 l 257
 678 994 l 257
130 201 m 257
 130 2 l 257
 867 2 l 257
 867 201 l 257
 130 201 l 257
130 363 m 257
 130 36 l 257
 330 36 l 257
 330 363 l 257
 130 363 l 257
EndSplineSet
PickledDataWithLists: "(dp0
."
EndChar

StartChar: uni090A
Encoding: 2314 2314 107
GlifName: uu-deva
Width: 1024
VWidth: 0
GlyphClass: 2
Flags: W
LayerCount: 2
Fore
SplineSet
-4 1548 m 257
 -4 1349 l 257
 1022 1349 l 257
 1022 1548 l 257
 -4 1548 l 257
308 1530 m 257
 308 1001 l 257
 507 1001 l 257
 507 1530 l 257
 308 1530 l 257
151 1044 m 257
 151 845 l 257
 974 845 l 257
 974 1044 l 257
 151 1044 l 257
487 994 m 257
 487 11 l 257
 687 11 l 257
 687 994 l 257
 487 994 l 257
46 204 m 257
 46 5 l 257
 684 5 l 257
 684 204 l 257
 46 204 l 257
46 366 m 257
 46 39 l 257
 246 39 l 257
 246 366 l 257
 46 366 l 257
775 946 m 257
 775 217 l 257
 974 217 l 257
 974 946 l 257
 775 946 l 257
EndSplineSet
PickledDataWithLists: "(dp0
."
EndChar

StartChar: uni090B
Encoding: 2315 2315 108
GlifName: rV_ocalic-deva
Width: 1024
VWidth: 0
GlyphClass: 2
Flags: W
LayerCount: 2
Fore
SplineSet
8 1546 m 257
 8 1347 l 257
 1022 1347 l 257
 1022 1546 l 257
 8 1546 l 257
512 1533 m 257
 512 0 l 257
 711 0 l 257
 711 1533 l 257
 512 1533 l 257
22 1043 m 257
 22 844 l 257
 326 845 l 257
 326 1044 l 257
 22 1043 l 257
511 496 m 257
 118 329 l 257
 200 136 l 257
 593 303 l 257
 511 496 l 257
326 1044 m 257
 326 846 l 257
 598 742 l 257
 608 944 l 257
 326 1044 l 257
695 897 m 257
 695 699 l 257
 1010 699 l 257
 1010 897 l 257
 695 897 l 257
788 897 m 257
 788 262 l 257
 987 262 l 257
 987 897 l 257
 788 897 l 257
864 464 m 257
 864 264 l 257
 1028 264 l 257
 1028 464 l 257
 864 464 l 257
EndSplineSet
PickledDataWithLists: "(dp0
."
EndChar

StartChar: uni090C
Encoding: 2316 2316 109
GlifName: lV_ocalic-deva
Width: 1024
VWidth: 0
GlyphClass: 2
Flags: W
LayerCount: 2
Fore
SplineSet
-16 1551 m 257
 -16 1352 l 257
 1023 1352 l 257
 1023 1551 l 257
 -16 1551 l 257
557 1551 m 257
 557 689 l 257
 757 689 l 257
 757 1551 l 257
 557 1551 l 257
956 791 m 257
 42 791 l 257
 42 590 l 257
 956 590 l 257
 956 791 l 257
42 777 m 257
 42 252 l 257
 243 252 l 257
 243 777 l 257
 42 777 l 257
393 791 m 257
 393 433 l 257
 594 433 l 257
 594 791 l 257
 393 791 l 257
745 792 m 257
 745 73 l 257
 945 73 l 257
 945 792 l 257
 745 792 l 257
820 259 m 257
 820 71 l 257
 1021 71 l 257
 1021 259 l 257
 820 259 l 257
EndSplineSet
EndChar

StartChar: uni090D
Encoding: 2317 2317 110
GlifName: uni090D_
Width: 1024
VWidth: 0
GlyphClass: 2
Flags: W
LayerCount: 2
Fore
SplineSet
153 2124 m 257
 153 1639 l 257
 352 1639 l 257
 352 2124 l 257
 153 2124 l 257
199 1842 m 257
 199 1641 l 257
 833 1641 l 257
 833 1842 l 257
 199 1842 l 257
757 2132 m 257
 757 1641 l 257
 957 1641 l 257
 957 2132 l 257
 757 2132 l 257
-1 1548 m 257
 -1 1348 l 257
 1026 1348 l 257
 1026 1548 l 257
 -1 1548 l 257
724 1548 m 257
 724 782 l 257
 924 782 l 257
 924 1548 l 257
 724 1548 l 257
631 979 m 257
 631 779 l 257
 924 779 l 257
 924 979 l 257
 631 979 l 257
138 1542 m 257
 138 338 l 257
 338 338 l 257
 338 1542 l 257
 138 1542 l 257
138 497 m 257
 138 297 l 257
 738 297 l 257
 738 497 l 257
 138 497 l 257
545 473 m 257
 545 -98 l 257
 745 -98 l 257
 745 473 l 257
 545 473 l 257
383 102 m 257
 383 -98 l 257
 743 -98 l 257
 743 102 l 257
 383 102 l 257
EndSplineSet
EndChar

StartChar: uni090E
Encoding: 2318 2318 111
GlifName: uni090E_
Width: 1024
VWidth: 0
GlyphClass: 2
Flags: W
LayerCount: 2
Fore
SplineSet
266 2155 m 257
 266 1836 l 257
 464 1836 l 257
 464 2155 l 257
 266 2155 l 257
265 1967 m 257
 265 1768 l 257
 948 1768 l 257
 948 1967 l 257
 265 1967 l 257
749 1956 m 257
 749 1516 l 257
 950 1516 l 257
 950 1956 l 257
 749 1956 l 257
-1 1548 m 257
 -1 1348 l 257
 1026 1348 l 257
 1026 1548 l 257
 -1 1548 l 257
724 1548 m 257
 724 782 l 257
 924 782 l 257
 924 1548 l 257
 724 1548 l 257
631 979 m 257
 631 779 l 257
 924 779 l 257
 924 979 l 257
 631 979 l 257
138 1542 m 257
 138 338 l 257
 338 338 l 257
 338 1542 l 257
 138 1542 l 257
138 497 m 257
 138 297 l 257
 738 297 l 257
 738 497 l 257
 138 497 l 257
545 473 m 257
 545 -98 l 257
 745 -98 l 257
 745 473 l 257
 545 473 l 257
383 102 m 257
 383 -98 l 257
 743 -98 l 257
 743 102 l 257
 383 102 l 257
EndSplineSet
EndChar

StartChar: uni090F
Encoding: 2319 2319 112
GlifName: e-deva
Width: 1024
VWidth: 0
GlyphClass: 2
Flags: W
LayerCount: 2
Fore
SplineSet
-1 1548 m 257
 -1 1348 l 257
 1026 1348 l 257
 1026 1548 l 257
 -1 1548 l 257
724 1548 m 257
 724 782 l 257
 924 782 l 257
 924 1548 l 257
 724 1548 l 257
631 979 m 257
 631 779 l 257
 924 779 l 257
 924 979 l 257
 631 979 l 257
138 1542 m 257
 138 338 l 257
 338 338 l 257
 338 1542 l 257
 138 1542 l 257
138 497 m 257
 138 297 l 257
 738 297 l 257
 738 497 l 257
 138 497 l 257
545 473 m 257
 545 -98 l 257
 745 -98 l 257
 745 473 l 257
 545 473 l 257
383 102 m 257
 383 -98 l 257
 743 -98 l 257
 743 102 l 257
 383 102 l 257
EndSplineSet
PickledDataWithLists: "(dp0
."
EndChar

StartChar: uni0910
Encoding: 2320 2320 113
GlifName: ai-deva
Width: 1024
VWidth: 0
GlyphClass: 2
Flags: W
LayerCount: 2
Fore
SplineSet
3 1548 m 257
 3 1348 l 257
 1026 1348 l 257
 1026 1548 l 257
 3 1548 l 257
724 1545 m 257
 724 779 l 257
 924 779 l 257
 924 1545 l 257
 724 1545 l 257
631 979 m 257
 631 779 l 257
 924 779 l 257
 924 979 l 257
 631 979 l 257
138 1542 m 257
 138 338 l 257
 338 338 l 257
 338 1542 l 257
 138 1542 l 257
138 497 m 257
 138 297 l 257
 738 297 l 257
 738 497 l 257
 138 497 l 257
545 473 m 257
 545 -98 l 257
 745 -98 l 257
 745 473 l 257
 545 473 l 257
383 102 m 257
 383 -98 l 257
 743 -98 l 257
 743 102 l 257
 383 102 l 257
442 1883 m 257
 758 1433 l 257
 922 1547 l 257
 606 1998 l 257
 442 1883 l 257
EndSplineSet
PickledDataWithLists: "(dp0
."
EndChar

StartChar: uni0911
Encoding: 2321 2321 114
GlifName: oC_andra-deva
Width: 1024
VWidth: 0
GlyphClass: 2
Flags: W
LayerCount: 2
Fore
SplineSet
528 1548 m 257
 528 1343 l 257
 1016 1343 l 257
 1016 1548 l 257
 528 1548 l 257
544 1419 m 257
 544 1 l 257
 743 1 l 257
 743 1419 l 257
 544 1419 l 257
25 1548 m 257
 25 1348 l 257
 385 1348 l 257
 385 1548 l 257
 25 1548 l 257
211 1548 m 257
 211 140 l 257
 411 140 l 257
 411 1548 l 257
 211 1548 l 257
109 894 m 257
 109 693 l 257
 643 693 l 257
 643 894 l 257
 109 894 l 257
0 201 m 257
 0 1 l 257
 411 1 l 257
 411 201 l 257
 0 201 l 257
811 1420 m 257
 811 2 l 257
 1010 2 l 257
 1010 1420 l 257
 811 1420 l 257
526 2085 m 257
 526 1639 l 257
 726 1639 l 257
 726 2085 l 257
 526 2085 l 257
532 1842 m 257
 532 1641 l 257
 1023 1641 l 257
 1023 1842 l 257
 532 1842 l 257
823 2083 m 257
 823 1641 l 257
 1023 1641 l 257
 1023 2083 l 257
 823 2083 l 257
EndSplineSet
EndChar

StartChar: uni0912
Encoding: 2322 2322 115
GlifName: oS_hort-deva
Width: 1024
VWidth: 0
GlyphClass: 2
Flags: W
LayerCount: 2
Fore
SplineSet
528 1543 m 257
 528 1343 l 257
 1016 1343 l 257
 1016 1543 l 257
 528 1543 l 257
549 1419 m 257
 549 1 l 257
 748 1 l 257
 748 1419 l 257
 549 1419 l 257
25 1548 m 257
 25 1348 l 257
 385 1348 l 257
 385 1548 l 257
 25 1548 l 257
211 1548 m 257
 211 140 l 257
 411 140 l 257
 411 1548 l 257
 211 1548 l 257
109 894 m 257
 109 693 l 257
 643 693 l 257
 643 894 l 257
 109 894 l 257
0 201 m 257
 0 1 l 257
 411 1 l 257
 411 201 l 257
 0 201 l 257
811 1420 m 257
 811 2 l 257
 1010 2 l 257
 1010 1420 l 257
 811 1420 l 257
266 2155 m 257
 266 1836 l 257
 464 1836 l 257
 464 2155 l 257
 266 2155 l 257
265 1967 m 257
 265 1768 l 257
 948 1768 l 257
 948 1967 l 257
 265 1967 l 257
749 1956 m 257
 749 1516 l 257
 950 1516 l 257
 950 1956 l 257
 749 1956 l 257
EndSplineSet
PickledDataWithLists: "(dp0
."
EndChar

StartChar: uni0913
Encoding: 2323 2323 116
GlifName: o-deva
Width: 1024
VWidth: 0
GlyphClass: 2
Flags: W
LayerCount: 2
Fore
SplineSet
528 1548 m 257
 528 1343 l 257
 1016 1343 l 257
 1016 1548 l 257
 528 1548 l 257
544 1419 m 257
 544 1 l 257
 743 1 l 257
 743 1419 l 257
 544 1419 l 257
25 1548 m 257
 25 1348 l 257
 385 1348 l 257
 385 1548 l 257
 25 1548 l 257
211 1548 m 257
 211 140 l 257
 411 140 l 257
 411 1548 l 257
 211 1548 l 257
109 894 m 257
 109 693 l 257
 643 693 l 257
 643 894 l 257
 109 894 l 257
0 201 m 257
 0 1 l 257
 411 1 l 257
 411 201 l 257
 0 201 l 257
811 1423 m 257
 811 5 l 257
 1010 5 l 257
 1010 1423 l 257
 811 1423 l 257
639 1768 m 257
 800 1458 l 257
 978 1550 l 257
 816 1861 l 257
 639 1768 l 257
EndSplineSet
EndChar

StartChar: uni0914
Encoding: 2324 2324 117
GlifName: au-deva
Width: 1024
VWidth: 0
GlyphClass: 2
Flags: W
LayerCount: 2
Fore
SplineSet
528 1548 m 257
 528 1343 l 257
 1016 1343 l 257
 1016 1548 l 257
 528 1548 l 257
544 1419 m 257
 544 1 l 257
 743 1 l 257
 743 1419 l 257
 544 1419 l 257
25 1548 m 257
 25 1348 l 257
 385 1348 l 257
 385 1548 l 257
 25 1548 l 257
211 1548 m 257
 211 140 l 257
 411 140 l 257
 411 1548 l 257
 211 1548 l 257
109 894 m 257
 109 693 l 257
 643 693 l 257
 643 894 l 257
 109 894 l 257
0 201 m 257
 0 1 l 257
 411 1 l 257
 411 201 l 257
 0 201 l 257
811 1420 m 257
 811 2 l 257
 1010 2 l 257
 1010 1420 l 257
 811 1420 l 257
339 1750 m 257
 619 1540 l 257
 911 1546 l 257
 475 1903 l 257
 339 1750 l 257
728 1949 m 257
 791 1522 l 257
 1003 1547 l 257
 925 1988 l 257
 728 1949 l 257
EndSplineSet
EndChar

StartChar: uni0915
Encoding: 2325 2325 118
GlifName: ka-deva
Width: 1024
VWidth: 0
GlyphClass: 2
Flags: W
LayerCount: 2
Fore
SplineSet
0 1550 m 257
 0 1350 l 257
 1016 1347 l 257
 1016 1547 l 257
 0 1550 l 257
522 1516 m 257
 522 10 l 257
 722 10 l 257
 722 1516 l 257
 522 1516 l 257
132 1029 m 257
 132 828 l 257
 614 828 l 257
 614 1029 l 257
 132 1029 l 257
135 987 m 257
 128 439 l 257
 331 443 l 257
 333 989 l 257
 135 987 l 257
150 635 m 257
 150 444 l 257
 576 439 l 257
 576 643 l 257
 150 635 l 257
628 874 m 257
 628 675 l 257
 934 675 l 257
 934 874 l 257
 628 874 l 257
785 872 m 257
 779 587 l 257
 981 587 l 257
 984 879 l 257
 785 872 l 257
EndSplineSet
EndChar

StartChar: uni0916
Encoding: 2326 2326 119
GlifName: uni0916
Width: 1024
VWidth: 0
GlyphClass: 2
Flags: W
LayerCount: 2
Fore
SplineSet
-7 1549 m 257
 -7 1349 l 257
 1023 1349 l 257
 1023 1549 l 257
 -7 1549 l 257
690 1514 m 257
 690 0 l 257
 890 0 l 257
 890 1514 l 257
 690 1514 l 257
429 979 m 257
 429 779 l 257
 657 779 l 257
 657 979 l 257
 429 979 l 257
399 979 m 257
 399 457 l 257
 599 457 l 257
 599 979 l 257
 399 979 l 257
399 568 m 257
 399 368 l 257
 742 368 l 257
 742 568 l 257
 399 568 l 257
114 1441 m 257
 113 120 l 257
 313 120 l 257
 314 1441 l 257
 114 1441 l 257
9 734 m 257
 9 534 l 257
 313 534 l 257
 313 734 l 257
 9 734 l 257
113 270 m 257
 113 70 l 257
 827 70 l 257
 827 270 l 257
 113 270 l 257
EndSplineSet
EndChar

StartChar: uni0917
Encoding: 2327 2327 120
GlifName: uni0917
Width: 1024
VWidth: 0
GlyphClass: 2
Flags: W
LayerCount: 2
Fore
SplineSet
102 853 m 257
 102 1044 l 257
 301 1044 l 257
 301 853 l 257
 102 853 l 257
102 882 m 257
 578 882 l 257
 578 683 l 257
 102 683 l 257
 102 882 l 257
379 1548 m 257
 578 1548 l 257
 578 812 l 257
 379 812 l 257
 379 1548 l 257
1012 1548 m 257
 1012 1348 l 257
 261 1348 l 257
 261 1548 l 257
 1012 1548 l 257
732 1523 m 257
 931 1523 l 257
 931 0 l 257
 732 0 l 257
 732 1523 l 257
EndSplineSet
PickledDataWithLists: "(dp0
."
EndChar

StartChar: uni0918
Encoding: 2328 2328 121
GlifName: gha-deva
Width: 1024
VWidth: 0
GlyphClass: 2
Flags: W
LayerCount: 2
Fore
SplineSet
1 1554 m 257
 1 1354 l 257
 1022 1354 l 257
 1022 1554 l 257
 1 1554 l 257
701 1522 m 257
 701 13 l 257
 901 13 l 257
 901 1522 l 257
 701 1522 l 257
173 1515 m 257
 173 883 l 257
 372 883 l 257
 372 1515 l 257
 173 1515 l 257
267 921 m 257
 266 721 l 257
 510 717 l 257
 511 917 l 257
 267 921 l 257
179 469 m 257
 179 269 l 257
 877 269 l 257
 877 469 l 257
 179 469 l 257
173 269 m 257
 372 269 l 257
 372 764 l 257
 173 764 l 257
 173 269 l 257
EndSplineSet
PickledDataWithLists: "(dp0
."
EndChar

StartChar: uni0919
Encoding: 2329 2329 122
GlifName: nga-deva
Width: 1024
VWidth: 0
GlyphClass: 2
Flags: W
LayerCount: 2
Fore
SplineSet
-4 1554 m 257
 -4 1354 l 257
 1022 1354 l 257
 1022 1554 l 257
 -4 1554 l 257
509 1543 m 257
 509 1026 l 257
 709 1026 l 257
 709 1543 l 257
 509 1543 l 257
700 1226 m 257
 226 1226 l 257
 226 1026 l 257
 700 1026 l 257
 700 1226 l 257
225 1083 m 257
 225 629 l 257
 430 629 l 257
 430 1083 l 257
 225 1083 l 257
225 820 m 257
 225 620 l 257
 786 620 l 257
 786 820 l 257
 225 820 l 257
586 680 m 257
 586 29 l 257
 786 29 l 257
 786 680 l 257
 586 680 l 257
112 201 m 257
 112 0 l 257
 787 0 l 257
 787 201 l 257
 112 201 l 257
112 423 m 257
 112 8 l 257
 313 8 l 257
 313 423 l 257
 112 423 l 257
813 1037 m 257
 813 890 l 257
 970 890 l 257
 970 1037 l 257
 813 1037 l 257
EndSplineSet
PickledDataWithLists: "(dp0
."
EndChar

StartChar: uni091A
Encoding: 2330 2330 123
GlifName: ca-deva
Width: 1024
VWidth: 0
GlyphClass: 2
Flags: W
LayerCount: 2
Fore
SplineSet
0 1556 m 257
 0 1356 l 257
 1022 1356 l 257
 1022 1556 l 257
 0 1556 l 257
636 1553 m 257
 636 -2 l 257
 836 -2 l 257
 836 1553 l 257
 636 1553 l 257
803 280 m 257
 803 480 l 257
 296 480 l 257
 296 280 l 257
 803 280 l 257
296 837 m 257
 296 421 l 257
 496 421 l 257
 496 837 l 257
 296 837 l 257
72 991 m 257
 72 791 l 257
 568 791 l 257
 568 991 l 257
 72 991 l 257
EndSplineSet
PickledDataWithLists: "(dp0
."
EndChar

StartChar: uni091B
Encoding: 2331 2331 124
GlifName: cha-deva
Width: 1024
VWidth: 0
GlyphClass: 2
Flags: W
LayerCount: 2
Fore
SplineSet
-6 1555 m 257
 -6 1355 l 257
 1016 1355 l 257
 1016 1555 l 257
 -6 1555 l 257
433 1130 m 257
 92 1130 l 257
 92 931 l 257
 433 931 l 257
 433 1130 l 257
89 1130 m 257
 89 584 l 257
 289 584 l 257
 289 1130 l 257
 89 1130 l 257
167 639 m 257
 167 439 l 257
 417 439 l 257
 417 639 l 257
 167 639 l 257
84 493 m 257
 84 0 l 257
 284 0 l 257
 284 493 l 257
 84 493 l 257
84 199 m 257
 84 0 l 257
 719 0 l 257
 719 199 l 257
 84 199 l 257
518 6 m 257
 719 6 l 257
 719 1515 l 257
 518 1515 l 257
 518 6 l 257
659 1007 m 257
 659 808 l 257
 997 808 l 257
 997 1007 l 257
 659 1007 l 257
796 868 m 257
 796 471 l 257
 997 471 l 257
 997 868 l 257
 796 868 l 257
EndSplineSet
PickledDataWithLists: "(dp0
."
EndChar

StartChar: uni091C
Encoding: 2332 2332 125
GlifName: ja-deva
Width: 1024
VWidth: 0
GlyphClass: 2
Flags: W
LayerCount: 2
Fore
SplineSet
-34 1551 m 257
 -34 1350 l 257
 1024 1350 l 257
 1024 1551 l 257
 -34 1551 l 257
678 1551 m 257
 678 -12 l 257
 877 -12 l 257
 877 1551 l 257
 678 1551 l 257
397 860 m 257
 397 663 l 257
 811 663 l 257
 811 860 l 257
 397 860 l 257
351 860 m 257
 351 413 l 257
 551 413 l 257
 551 860 l 257
 351 860 l 257
41 567 m 257
 41 367 l 257
 551 367 l 257
 551 567 l 257
 41 567 l 257
41 727 m 257
 41 509 l 257
 241 509 l 257
 241 727 l 257
 41 727 l 257
EndSplineSet
PickledDataWithLists: "(dp0
."
EndChar

StartChar: uni091D
Encoding: 2333 2333 126
GlifName: jha-deva
Width: 1024
VWidth: 0
GlyphClass: 2
Flags: W
LayerCount: 2
Fore
SplineSet
-18 1549 m 257
 -18 1349 l 257
 1023 1349 l 257
 1023 1549 l 257
 -18 1549 l 257
679 1539 m 257
 679 -5 l 257
 880 -5 l 257
 880 1539 l 257
 679 1539 l 257
447 1537 m 257
 447 1024 l 257
 646 1024 l 257
 646 1537 l 257
 447 1537 l 257
125 1223 m 257
 125 1024 l 257
 646 1024 l 257
 646 1223 l 257
 125 1223 l 257
125 1085 m 257
 125 651 l 257
 325 651 l 257
 325 1085 l 257
 125 1085 l 257
125 837 m 257
 125 638 l 257
 874 638 l 257
 874 837 l 257
 125 837 l 257
418 691 m 257
 418 7 l 257
 618 7 l 257
 618 691 l 257
 418 691 l 257
125 203 m 257
 125 3 l 257
 618 3 l 257
 618 203 l 257
 125 203 l 257
125 63 m 257
 125 -148 l 257
 325 -148 l 257
 325 63 l 257
 125 63 l 257
EndSplineSet
PickledDataWithLists: "(dp0
."
EndChar

StartChar: uni091E
Encoding: 2334 2334 127
GlifName: nya-deva
Width: 1024
VWidth: 0
GlyphClass: 2
Flags: W
LayerCount: 2
Fore
SplineSet
-5 1548 m 257
 -5 1348 l 257
 1029 1348 l 257
 1029 1548 l 257
 -5 1548 l 257
735 1538 m 257
 735 -8 l 257
 935 -8 l 257
 935 1538 l 257
 735 1538 l 257
465 737 m 257
 465 537 l 257
 832 537 l 257
 832 737 l 257
 465 737 l 257
84 960 m 257
 84 760 l 257
 442 760 l 257
 442 960 l 257
 84 960 l 257
411 960 m 257
 411 316 l 257
 611 316 l 257
 611 960 l 257
 411 960 l 257
61 460 m 257
 61 260 l 257
 611 260 l 257
 611 460 l 257
 61 460 l 257
EndSplineSet
PickledDataWithLists: "(dp0
."
EndChar

StartChar: v
Encoding: 118 118 128
GlifName: v
Width: 1024
VWidth: 0
GlyphClass: 2
Flags: W
LayerCount: 2
Fore
SplineSet
181 1022 m 257
 410 0 l 257
 617 1 l 257
 380 1025 l 257
 181 1022 l 257
643 1021 m 257
 408 0 l 257
 615 3 l 257
 843 1022 l 257
 643 1021 l 257
EndSplineSet
EndChar

StartChar: w
Encoding: 119 119 129
GlifName: w
Width: 1024
VWidth: 0
GlyphClass: 2
Flags: W
LayerCount: 2
Fore
SplineSet
103 1023 m 257
 104 1 l 257
 303 0 l 257
 302 1023 l 257
 103 1023 l 257
722 1028 m 257
 722 12 l 257
 921 12 l 257
 921 1028 l 257
 722 1028 l 257
408 610 m 257
 409 1 l 257
 608 1 l 257
 609 610 l 257
 408 610 l 257
102 276 m 257
 104 1 l 257
 921 0 l 257
 921 276 l 257
 102 276 l 257
EndSplineSet
EndChar

StartChar: x
Encoding: 120 120 130
GlifName: x
Width: 1024
VWidth: 0
GlyphClass: 2
Flags: W
LayerCount: 2
Fore
SplineSet
91 0 m 257
 728 1025 l 257
 927 1023 l 257
 292 2 l 257
 91 0 l 257
93 1027 m 257
 295 1025 l 257
 934 -2 l 257
 735 -1 l 257
 93 1027 l 257
EndSplineSet
EndChar

StartChar: y
Encoding: 121 121 131
GlifName: y
Width: 1024
VWidth: 0
GlyphClass: 2
Flags: W
LayerCount: 2
Fore
SplineSet
680 1023 m 257
 680 -410 l 257
 880 -410 l 257
 880 1023 l 257
 680 1023 l 257
147 -211 m 257
 147 -410 l 257
 864 -410 l 257
 864 -211 l 257
 147 -211 l 257
147 1023 m 257
 147 264 l 257
 347 264 l 257
 347 1023 l 257
 147 1023 l 257
147 464 m 257
 147 264 l 257
 765 264 l 257
 765 464 l 257
 147 464 l 257
EndSplineSet
EndChar

StartChar: z
Encoding: 122 122 132
GlifName: z
Width: 1024
VWidth: 0
GlyphClass: 2
Flags: W
LayerCount: 2
Fore
SplineSet
98 1027 m 257
 98 826 l 257
 926 826 l 257
 926 1027 l 257
 98 1027 l 257
98 201 m 257
 98 1 l 257
 926 1 l 257
 926 201 l 257
 98 201 l 257
634 826 m 257
 98 201 l 257
 404 201 l 257
 926 826 l 257
 634 826 l 257
EndSplineSet
EndChar

StartChar: zero
Encoding: 48 48 133
GlifName: zero
Width: 1024
VWidth: 0
GlyphClass: 2
Flags: W
LayerCount: 2
Fore
SplineSet
127 1 m 257
 127 963 l 257
 329 962 l 257
 329 0 l 257
 127 1 l 257
126 883 m 257
 126 1639 l 257
 330 1639 l 257
 330 883 l 257
 126 883 l 257
169 207 m 257
 997 208 l 257
 999 0 l 257
 171 3 l 257
 169 207 l 257
127 1418 m 257
 125 1638 l 257
 1000 1641 l 257
 1000 1418 l 257
 127 1418 l 257
857 -1 m 257
 857 950 l 257
 1055 950 l 257
 1055 0 l 257
 857 -1 l 257
858 884 m 257
 858 1640 l 257
 1052 1640 l 257
 1052 884 l 257
 858 884 l 257
460 1013 m 257
 460 747 l 257
 741 747 l 257
 741 1013 l 257
 460 1013 l 257
EndSplineSet
EndChar
